<svg width="445" height="326" viewBox="0 0 445 326" fill="none" xmlns="http://www.w3.org/2000/svg">
<g filter="url(#filter0_d_2_58323)">
<path d="M144.583 231.89C152.599 224.32 163.79 201.241 166.6 186.998C191.86 183.75 214.489 173.335 222.608 168.824C230.547 182.537 244.8 194.808 250.513 198.567C229.131 201.288 218.95 208.185 197.352 221.493C181.812 231.068 154.604 233.844 144.583 231.89Z" fill="#ABED26" fill-opacity="0.35" shape-rendering="crispEdges"/>
</g>
<g filter="url(#filter1_d_2_58323)">
<path d="M372.044 50.5248C424.998 73.7819 437.419 126.869 439.379 146.576C442.914 182.135 414.211 219.501 372.044 231.619C329.442 241.004 262.571 217.827 234.404 186.184C201.45 149.165 207.257 126.614 228.768 83.5934C244.125 52.8791 281.764 33.9174 322.946 35.8845C342.932 36.8391 353.725 42.4792 372.044 50.5248Z" fill="#ABED26" fill-opacity="0.35" shape-rendering="crispEdges"/>
<path d="M438.384 146.675C436.436 127.092 424.094 74.4774 371.642 51.4404C369.873 50.6636 368.176 49.9102 366.536 49.1819C351.154 42.3515 340.761 37.7366 322.899 36.8834C282.01 34.9303 244.8 53.7638 229.662 84.0406C218.899 105.567 212.183 121.763 212.162 137.141C212.141 152.44 218.758 167.104 235.151 185.52C249.079 201.166 272.663 214.795 298.129 223.339C323.583 231.879 350.742 235.279 371.798 230.649C413.605 218.621 441.859 181.63 438.384 146.675Z" stroke="#ABED26" stroke-width="2" stroke-linejoin="round" shape-rendering="crispEdges"/>
</g>
<g filter="url(#filter2_d_2_58323)">
<path d="M322.946 18.8379C376.285 41.3585 348.345 89.4031 322.946 107.943C296.777 127.045 251.665 133.701 213.172 117.106C165.056 96.3618 153.897 64.8413 184.532 25.6973C202.746 2.42366 272.569 -2.43281 322.946 18.8379Z" fill="#ABED26" fill-opacity="0.35" shape-rendering="crispEdges"/>
<path d="M322.357 107.135C334.919 97.9653 348.064 81.515 351.493 64.6835C353.201 56.2981 352.493 47.8563 348.149 40.1451C343.801 32.4274 335.748 25.3286 322.557 19.7591C297.529 9.19175 267.635 5.10463 241.734 6.56189C228.787 7.29033 216.871 9.40242 207.083 12.7616C197.277 16.1272 189.704 20.7108 185.319 26.3136C170.102 45.7578 165.443 63.0768 170.272 77.9935C175.115 92.9531 189.612 105.859 213.568 116.187C251.75 132.649 296.485 126.02 322.357 107.135Z" stroke="#ABED26" stroke-width="2" stroke-linejoin="round" shape-rendering="crispEdges"/>
</g>
<g filter="url(#filter3_d_2_58323)">
<path d="M39.886 271.831C28.5167 231.619 68.4904 221.037 93.7981 225.261C215.004 245.488 185.529 208.103 258.597 195.545C317.052 185.498 348.35 215.915 345.084 244.388C339.825 290.241 280.071 287.863 234.404 287.863C153.815 287.863 165.061 320.895 126.373 320.895C106.119 320.895 52.4446 316.248 39.886 271.831Z" fill="#ABED26" fill-opacity="0.35" shape-rendering="crispEdges"/>
<path d="M93.6335 226.247C81.1451 224.163 65.0847 225.751 53.6081 232.737C47.8901 236.218 43.337 241.02 40.8871 247.357C38.4373 253.693 38.0514 261.667 40.8483 271.558C47.0131 293.362 63.2613 305.441 80.6015 312.086C97.9584 318.737 116.301 319.895 126.373 319.895C141.858 319.895 149.06 314.564 157.852 308.057C159.822 306.6 161.871 305.083 164.112 303.553C176.401 295.165 193.941 286.863 234.404 286.863C236.524 286.863 238.673 286.868 240.843 286.873C262.107 286.923 285.463 286.978 304.662 282.348C315.227 279.801 324.444 275.853 331.332 269.775C338.196 263.719 342.803 255.499 344.09 244.274C345.674 230.463 338.889 216.083 324.427 206.351C309.966 196.62 287.805 191.539 258.767 196.53C232.004 201.13 219.213 209.018 207.481 216.254C203.28 218.844 199.215 221.351 194.693 223.593C177.49 232.123 154.299 236.371 93.6335 226.247Z" stroke="#ABED26" stroke-width="2" stroke-linejoin="round" shape-rendering="crispEdges"/>
</g>
<g filter="url(#filter4_d_2_58323)">
<path d="M112.225 87.5133C84.3913 83.5933 46.8269 87.2407 29.668 110.629C-59.9895 232.837 124.693 322.979 165.061 195.545C189.12 119.592 140.713 91.5256 112.225 87.5133Z" fill="#ABED26" fill-opacity="0.35" shape-rendering="crispEdges"/>
<path d="M112.085 88.5036C98.2599 86.5564 82.0345 86.4928 67.1609 89.8067C52.2795 93.1222 38.8586 99.7924 30.4743 111.221C8.19707 141.586 3.03638 169.843 8.29767 193.154C13.5633 216.485 29.2992 235.004 49.0849 245.825C68.8746 256.649 92.6487 259.734 113.937 252.28C135.194 244.836 154.099 226.84 164.108 195.243C176.063 157.502 169.969 131.848 157.546 115.148C145.085 98.398 126.13 90.4816 112.085 88.5036Z" stroke="#ABED26" stroke-width="2" stroke-linejoin="round" shape-rendering="crispEdges"/>
</g>
<g filter="url(#filter5_d_2_58323)">
<path d="M114.844 29.3991C156.381 11.5015 194.041 12.7842 224.502 35.8845C250.508 55.6066 266.721 91.0944 263.27 123.55C257.57 177.157 143.721 207.804 93.7981 178.379C84.6779 173.003 41.9907 132.108 48.3842 90.874C52.8228 62.2479 73.3065 47.2966 114.844 29.3991Z" fill="#ABED26" fill-opacity="0.35" shape-rendering="crispEdges"/>
<path d="M223.897 36.6813C193.803 13.8587 156.548 12.5183 115.239 30.3175C94.4865 39.2594 79.1049 47.4212 68.3622 56.8644C57.6612 66.271 51.554 76.9574 49.3724 91.0273C46.2336 111.271 55.1398 131.537 66.0981 147.508C71.566 155.477 77.5174 162.336 82.666 167.533C87.834 172.751 92.1392 176.24 94.3059 177.517C106.59 184.758 122.881 188.34 140.562 188.764C158.231 189.189 177.215 186.458 194.829 181.144C212.447 175.829 228.646 167.943 240.775 158.094C252.908 148.241 260.888 136.493 262.275 123.444C265.687 91.355 249.639 56.2028 223.897 36.6813Z" stroke="#ABED26" stroke-width="2" stroke-linejoin="round" shape-rendering="crispEdges"/>
</g>
<defs>
<filter id="filter0_d_2_58323" x="139.583" y="163.824" width="115.93" height="73.6541" filterUnits="userSpaceOnUse" color-interpolation-filters="sRGB">
<feFlood flood-opacity="0" result="BackgroundImageFix"/>
<feColorMatrix in="SourceAlpha" type="matrix" values="0 0 0 0 0 0 0 0 0 0 0 0 0 0 0 0 0 0 127 0" result="hardAlpha"/>
<feOffset/>
<feGaussianBlur stdDeviation="2.5"/>
<feComposite in2="hardAlpha" operator="out"/>
<feColorMatrix type="matrix" values="0 0 0 0 0.670588 0 0 0 0 0.929412 0 0 0 0 0.14902 0 0 0 1 0"/>
<feBlend mode="normal" in2="BackgroundImageFix" result="effect1_dropShadow_2_58323"/>
<feBlend mode="normal" in="SourceGraphic" in2="effect1_dropShadow_2_58323" result="shape"/>
</filter>
<filter id="filter1_d_2_58323" x="206.162" y="30.7449" width="238.511" height="207.982" filterUnits="userSpaceOnUse" color-interpolation-filters="sRGB">
<feFlood flood-opacity="0" result="BackgroundImageFix"/>
<feColorMatrix in="SourceAlpha" type="matrix" values="0 0 0 0 0 0 0 0 0 0 0 0 0 0 0 0 0 0 127 0" result="hardAlpha"/>
<feOffset/>
<feGaussianBlur stdDeviation="2.5"/>
<feComposite in2="hardAlpha" operator="out"/>
<feColorMatrix type="matrix" values="0 0 0 0 0.670588 0 0 0 0 0.929412 0 0 0 0 0.14902 0 0 0 1 0"/>
<feBlend mode="normal" in2="BackgroundImageFix" result="effect1_dropShadow_2_58323"/>
<feBlend mode="normal" in="SourceGraphic" in2="effect1_dropShadow_2_58323" result="shape"/>
</filter>
<filter id="filter2_d_2_58323" x="162.445" y="0.276733" width="195.906" height="131.277" filterUnits="userSpaceOnUse" color-interpolation-filters="sRGB">
<feFlood flood-opacity="0" result="BackgroundImageFix"/>
<feColorMatrix in="SourceAlpha" type="matrix" values="0 0 0 0 0 0 0 0 0 0 0 0 0 0 0 0 0 0 127 0" result="hardAlpha"/>
<feOffset/>
<feGaussianBlur stdDeviation="2.5"/>
<feComposite in2="hardAlpha" operator="out"/>
<feColorMatrix type="matrix" values="0 0 0 0 0.670588 0 0 0 0 0.929412 0 0 0 0 0.14902 0 0 0 1 0"/>
<feBlend mode="normal" in2="BackgroundImageFix" result="effect1_dropShadow_2_58323"/>
<feBlend mode="normal" in="SourceGraphic" in2="effect1_dropShadow_2_58323" result="shape"/>
</filter>
<filter id="filter3_d_2_58323" x="32.897" y="188.583" width="317.419" height="137.312" filterUnits="userSpaceOnUse" color-interpolation-filters="sRGB">
<feFlood flood-opacity="0" result="BackgroundImageFix"/>
<feColorMatrix in="SourceAlpha" type="matrix" values="0 0 0 0 0 0 0 0 0 0 0 0 0 0 0 0 0 0 127 0" result="hardAlpha"/>
<feOffset/>
<feGaussianBlur stdDeviation="2.5"/>
<feComposite in2="hardAlpha" operator="out"/>
<feColorMatrix type="matrix" values="0 0 0 0 0.670588 0 0 0 0 0.929412 0 0 0 0 0.14902 0 0 0 1 0"/>
<feBlend mode="normal" in2="BackgroundImageFix" result="effect1_dropShadow_2_58323"/>
<feBlend mode="normal" in="SourceGraphic" in2="effect1_dropShadow_2_58323" result="shape"/>
</filter>
<filter id="filter4_d_2_58323" x="0.401688" y="81.1545" width="176.159" height="181.213" filterUnits="userSpaceOnUse" color-interpolation-filters="sRGB">
<feFlood flood-opacity="0" result="BackgroundImageFix"/>
<feColorMatrix in="SourceAlpha" type="matrix" values="0 0 0 0 0 0 0 0 0 0 0 0 0 0 0 0 0 0 127 0" result="hardAlpha"/>
<feOffset/>
<feGaussianBlur stdDeviation="2.5"/>
<feComposite in2="hardAlpha" operator="out"/>
<feColorMatrix type="matrix" values="0 0 0 0 0.670588 0 0 0 0 0.929412 0 0 0 0 0.14902 0 0 0 1 0"/>
<feBlend mode="normal" in2="BackgroundImageFix" result="effect1_dropShadow_2_58323"/>
<feBlend mode="normal" in="SourceGraphic" in2="effect1_dropShadow_2_58323" result="shape"/>
</filter>
<filter id="filter5_d_2_58323" x="42.7346" y="12.1293" width="225.996" height="182.678" filterUnits="userSpaceOnUse" color-interpolation-filters="sRGB">
<feFlood flood-opacity="0" result="BackgroundImageFix"/>
<feColorMatrix in="SourceAlpha" type="matrix" values="0 0 0 0 0 0 0 0 0 0 0 0 0 0 0 0 0 0 127 0" result="hardAlpha"/>
<feOffset/>
<feGaussianBlur stdDeviation="2.5"/>
<feComposite in2="hardAlpha" operator="out"/>
<feColorMatrix type="matrix" values="0 0 0 0 0.670588 0 0 0 0 0.929412 0 0 0 0 0.14902 0 0 0 1 0"/>
<feBlend mode="normal" in2="BackgroundImageFix" result="effect1_dropShadow_2_58323"/>
<feBlend mode="normal" in="SourceGraphic" in2="effect1_dropShadow_2_58323" result="shape"/>
</filter>
</defs>
</svg>
