<?xml version="1.0" encoding="UTF-8"?><svg id="b" xmlns="http://www.w3.org/2000/svg" viewBox="0 0 255.01 94.72"><g id="c"><g><path d="M21.47,57.02c-4.23,0-7.97-.94-11.21-2.82-3.25-1.88-5.77-4.55-7.56-8-1.8-3.45-2.69-7.52-2.69-12.21,0-4.05,.9-7.85,2.69-11.39,1.8-3.53,4.33-6.39,7.61-8.56,3.27-2.17,7.08-3.26,11.43-3.26,2.43,0,4.81,.33,7.13,1,2.32,.67,4.42,1.81,6.3,3.43,1.88,1.62,3.39,3.82,4.52,6.61s1.67,6.26,1.61,10.43l-28.51,.52c0,3.13,.39,5.94,1.17,8.43,.78,2.49,2.07,4.46,3.87,5.91,1.79,1.45,4.2,2.17,7.21,2.17,1.16,0,2.48-.2,3.96-.61,1.48-.41,2.98-1.09,4.52-2.04,1.54-.96,2.97-2.25,4.3-3.87l3.91,3.65c-2.09,2.96-4.32,5.2-6.69,6.74-2.38,1.54-4.74,2.56-7.08,3.09-2.35,.52-4.51,.78-6.48,.78ZM13.3,26.69h15.99c-.06-2.43-.39-4.36-1-5.78-.61-1.42-1.43-2.45-2.48-3.09-1.04-.64-2.26-.96-3.65-.96-2.55,0-4.55,.91-6,2.74-1.45,1.83-2.41,4.19-2.87,7.08Z" style="fill:#fff;"/><path d="M64.85,57.02c-1.74,0-3.42-.2-5.04-.61-1.62-.41-3.07-1.17-4.35-2.3-1.28-1.13-2.29-2.8-3.04-5-.75-2.2-1.13-5.13-1.13-8.78l.17-20.95h-5.91v-7.21c1.8-.06,3.53-.67,5.22-1.82,1.68-1.16,3.11-2.67,4.3-4.52,1.19-1.85,1.98-3.79,2.39-5.82h6.43l-.09,12.17h11.04v6.69l-11.04,.26-.09,21.38c0,1.33,.13,2.65,.39,3.96,.26,1.3,.77,2.38,1.52,3.22,.75,.84,1.85,1.26,3.3,1.26,.81,0,1.93-.29,3.35-.87,1.42-.58,2.94-2.03,4.56-4.35l4.17,3.91c-1.57,2.32-3.19,4.12-4.87,5.39-1.68,1.28-3.29,2.2-4.82,2.78-1.54,.58-2.88,.93-4.04,1.04-1.16,.12-1.97,.17-2.43,.17Z" style="fill:#fff;"/><path d="M99.7,55.89l-13.73-30.16c-.64-1.45-1.09-2.55-1.35-3.3-.26-.75-.43-1.4-.52-1.96s-.22-1.17-.39-1.87l-3.22,.17v-6.61h20.34v5.56c-1.22,.06-2.03,.41-2.43,1.04-.41,.64-.55,1.46-.43,2.48,.12,1.02,.38,2.1,.78,3.26l4.52,11.13c.46,1.1,.93,2.23,1.39,3.39,.46,1.16,.93,2.32,1.39,3.48h.09c.46-1.22,.91-2.43,1.35-3.65,.43-1.22,.85-2.43,1.26-3.65l3.74-10.6c.52-1.45,1-2.61,1.43-3.48s.91-1.77,1.43-2.69l-5.39,.35v-6.61h16.52v5.56c-1.33,.23-2.52,.97-3.56,2.22-1.04,1.25-1.94,2.64-2.7,4.17-.75,1.54-1.36,2.88-1.83,4.04l-11.13,27.73h-7.56Z" style="fill:#fff;"/><path d="M150.55,57.02c-4.17,0-7.94-.9-11.3-2.69-3.36-1.8-6.01-4.36-7.95-7.69-1.94-3.33-2.91-7.26-2.91-11.78,0-4.81,1-9.02,3-12.65,2-3.62,4.66-6.43,8-8.43,3.33-2,6.97-3,10.91-3,4.17,0,7.91,.9,11.21,2.7,3.3,1.8,5.91,4.36,7.82,7.69s2.87,7.32,2.87,11.95c0,4.87-.93,9.1-2.78,12.69-1.86,3.59-4.4,6.36-7.65,8.3-3.25,1.94-6.98,2.91-11.21,2.91Zm.35-6.17c2.32-.06,4.07-.87,5.26-2.43,1.19-1.56,2.01-3.53,2.48-5.91,.46-2.38,.7-4.78,.7-7.21,0-2.14-.16-4.32-.48-6.52-.32-2.2-.83-4.2-1.52-6-.7-1.79-1.64-3.24-2.82-4.35-1.19-1.1-2.65-1.62-4.39-1.56-2.26,.06-4.04,.87-5.35,2.43s-2.23,3.52-2.78,5.87c-.55,2.35-.83,4.8-.83,7.35,0,2.96,.32,5.85,.96,8.69,.64,2.84,1.67,5.17,3.09,7s3.32,2.71,5.69,2.65Z" style="fill:#fff;"/></g><g><path d="M5.59,89.58l-3.53-10.48c-.22-.7-.4-1.24-.53-1.64-.13-.4-.23-.75-.3-1.03-.18,.01-.37,.02-.55,.02s-.37,0-.55,.02v-.87H4.92v.65c-.76,.04-1.22,.21-1.37,.51-.15,.3-.12,.85,.09,1.63,.22,.87,.47,1.65,.73,2.34,.26,.7,.52,1.44,.77,2.24,.18,.59,.37,1.14,.56,1.63s.38,1.06,.58,1.67h.04c.07-.22,.13-.46,.21-.71,.07-.25,.15-.49,.23-.73,.08-.24,.15-.46,.22-.66,.07-.2,.12-.37,.16-.5,.37-1.17,.73-2.3,1.09-3.4s.68-2.06,.96-2.89,.47-1.45,.57-1.84h.63c.12,.43,.29,.98,.51,1.65,.22,.67,.46,1.37,.71,2.11,.25,.73,.48,1.43,.7,2.09s.39,1.18,.52,1.58c.18,.59,.38,1.18,.58,1.75,.2,.58,.39,1.17,.56,1.79h.06c.12-.38,.25-.79,.38-1.22,.14-.43,.28-.87,.42-1.32,.34-.97,.62-1.79,.84-2.44,.22-.66,.39-1.2,.53-1.63,.14-.43,.26-.81,.35-1.13s.2-.63,.3-.94c.08-.22,.17-.46,.27-.72,.1-.26,.21-.5,.34-.72-.26,.01-.53,.02-.79,.03-.26,0-.53,.02-.79,.03v-.87h4v.65c-.45,.05-.8,.15-1.05,.29s-.48,.41-.68,.81c-.2,.39-.43,1-.71,1.81-.6,1.79-1.19,3.54-1.76,5.27-.57,1.73-1.17,3.44-1.78,5.15h-.59l-2.99-8.55c-.12-.34-.23-.68-.34-1-.11-.33-.23-.66-.34-.98-.11,.33-.21,.66-.33,.98s-.22,.66-.33,.98l-2.82,8.57h-.57Z" style="fill:#fff;"/><path d="M24.46,89.7c-.91,0-1.72-.21-2.45-.64-.73-.43-1.3-1.03-1.72-1.81s-.63-1.7-.63-2.77c0-.92,.21-1.78,.62-2.58,.41-.8,.99-1.45,1.74-1.94,.75-.49,1.61-.74,2.6-.74,.55,0,1.07,.09,1.55,.27,.48,.18,.9,.45,1.27,.81s.66,.81,.87,1.36c.21,.54,.32,1.19,.32,1.92l-6.93,.12c0,1,.11,1.87,.33,2.63,.22,.76,.57,1.34,1.05,1.75,.49,.41,1.11,.62,1.87,.62,.41,0,.82-.07,1.25-.22,.43-.14,.82-.34,1.19-.59,.37-.25,.66-.52,.89-.83l.47,.39c-.35,.55-.78,.99-1.28,1.32s-1.01,.56-1.54,.71c-.52,.14-1.01,.22-1.46,.22Zm-2.72-6.83h5.02c0-.47-.07-.93-.21-1.37s-.36-.8-.68-1.08-.73-.42-1.24-.42c-.76,0-1.4,.23-1.9,.68-.51,.45-.84,1.18-1,2.2Z" style="fill:#fff;"/><path d="M31,77.07c0-.21,0-.41,0-.6,0-.19,.02-.42,.05-.68-.24,.01-.47,.03-.7,.04-.23,.01-.46,.03-.7,.04v-.83c.58,0,1.03-.03,1.35-.08,.32-.05,.56-.12,.73-.2,.16-.08,.29-.16,.38-.26h.57v5.87c.37-.37,.8-.65,1.31-.86,.5-.2,1.06-.31,1.66-.31,.84,0,1.6,.2,2.27,.61,.68,.41,1.21,.98,1.6,1.73,.39,.75,.59,1.63,.59,2.66,0,1.12-.24,2.08-.73,2.9s-1.12,1.45-1.89,1.9-1.61,.67-2.5,.67c-.45,0-.94-.08-1.47-.25-.53-.16-1.01-.48-1.43-.96l-.47,.89h-.69l.04-12.31Zm1.69,9.22c0,.7,.11,1.23,.33,1.61,.22,.37,.51,.63,.87,.78s.73,.22,1.12,.22c.63,0,1.17-.18,1.63-.53,.46-.35,.82-.84,1.07-1.47,.26-.62,.38-1.35,.38-2.18,0-.89-.11-1.68-.33-2.35-.22-.68-.56-1.21-1-1.59s-1.01-.58-1.69-.58c-.43,0-.86,.1-1.29,.31-.43,.2-.79,.48-1.09,.82v4.98Z" style="fill:#fff;"/><path d="M47.22,88.73c.5-.03,.84-.14,1.02-.34,.18-.2,.29-.49,.3-.85,.02-.36,.03-.77,.03-1.23v-8.51c0-.26,0-.51,.02-.76,.01-.24,.03-.46,.04-.66-.24,.01-.47,.03-.71,.04-.24,.01-.47,.03-.71,.04v-.87l4.65-.02c1.18,0,2.26,.14,3.25,.41,.99,.28,1.83,.7,2.55,1.27,.71,.57,1.27,1.29,1.65,2.17,.39,.87,.58,1.9,.58,3.08,0,.91-.16,1.77-.47,2.6-.32,.83-.79,1.56-1.42,2.2-.63,.64-1.42,1.14-2.35,1.52s-2.03,.56-3.26,.56h-5.18v-.65Zm3.07-1.67c0,.35,0,.66,0,.91,0,.25-.02,.46-.05,.63,.35,.01,.68,.02,.98,.03,.29,0,.54,0,.75,0h.38c.85,0,1.62-.16,2.31-.47,.69-.32,1.28-.75,1.77-1.31s.87-1.21,1.14-1.97c.27-.75,.4-1.57,.4-2.45,0-1.25-.23-2.33-.68-3.24-.45-.91-1.15-1.62-2.08-2.13-.93-.5-2.12-.76-3.56-.76-.49,0-.82,.1-1.01,.3-.19,.2-.3,.47-.32,.83-.02,.35-.03,.77-.03,1.24v8.39Z" style="fill:#fff;"/><path d="M66.44,89.7c-.91,0-1.72-.21-2.45-.64-.73-.43-1.3-1.03-1.72-1.81s-.63-1.7-.63-2.77c0-.92,.21-1.78,.62-2.58,.41-.8,.99-1.45,1.74-1.94,.75-.49,1.61-.74,2.6-.74,.55,0,1.07,.09,1.55,.27,.48,.18,.9,.45,1.27,.81s.66,.81,.87,1.36c.21,.54,.32,1.19,.32,1.92l-6.93,.12c0,1,.11,1.87,.33,2.63,.22,.76,.57,1.34,1.05,1.75,.49,.41,1.11,.62,1.87,.62,.41,0,.82-.07,1.25-.22,.43-.14,.82-.34,1.19-.59,.37-.25,.66-.52,.89-.83l.47,.39c-.35,.55-.78,.99-1.28,1.32s-1.01,.56-1.54,.71c-.52,.14-1.01,.22-1.46,.22Zm-2.72-6.83h5.02c0-.47-.07-.93-.21-1.37s-.36-.8-.68-1.08-.73-.42-1.24-.42c-.76,0-1.4,.23-1.9,.68-.51,.45-.84,1.18-1,2.2Z" style="fill:#fff;"/><path d="M76.39,89.7c-.66,0-1.24-.09-1.75-.27-.51-.18-.93-.38-1.26-.6l.08,.69h-.83l-.12-3.39h.61c.03,.54,.18,1.02,.45,1.45,.28,.43,.63,.76,1.06,.99,.43,.24,.9,.35,1.4,.35,.34,0,.68-.06,1-.17,.33-.11,.6-.28,.83-.51,.22-.23,.33-.52,.33-.88s-.11-.67-.32-.92c-.22-.24-.5-.46-.86-.64-.35-.18-.74-.35-1.14-.51-.39-.16-.79-.32-1.18-.49s-.76-.37-1.09-.61-.6-.53-.8-.87c-.2-.34-.29-.76-.29-1.26,0-.28,.05-.58,.16-.91,.1-.33,.28-.64,.53-.93,.25-.3,.59-.54,1.02-.73s.98-.29,1.65-.29c.35,0,.75,.06,1.18,.18,.43,.12,.85,.34,1.26,.67l-.04-.75h.83v3.45h-.63c-.03-.46-.13-.9-.32-1.33-.18-.43-.45-.78-.81-1.06-.35-.28-.81-.42-1.38-.42-.6,0-1.08,.15-1.42,.45-.34,.3-.51,.65-.51,1.04s.13,.75,.38,1.01c.26,.27,.59,.5,.99,.7,.41,.2,.84,.39,1.3,.57,.5,.21,.98,.44,1.46,.69,.47,.25,.86,.56,1.16,.94s.45,.86,.45,1.45c0,.66-.17,1.2-.5,1.63-.33,.43-.76,.75-1.28,.96s-1.06,.31-1.62,.31Z" style="fill:#fff;"/><path d="M81.47,88.79c.41,0,.69-.1,.85-.31,.16-.2,.25-.49,.28-.85,.03-.36,.04-.78,.04-1.25v-4.49c0-.21,0-.41,.02-.6,.01-.19,.03-.42,.06-.68-.24,.01-.47,.03-.7,.04-.23,.01-.46,.03-.7,.04v-.83c.58,0,1.02-.03,1.34-.08,.32-.05,.55-.12,.72-.2,.16-.08,.29-.16,.38-.26h.57v7.96c0,.26,0,.5,0,.7,0,.2-.03,.42-.07,.64,.21-.01,.42-.02,.62-.03,.2,0,.41-.02,.62-.03v.81h-4.02v-.59Zm1.89-11.4c-.28,0-.52-.11-.73-.34-.21-.22-.32-.5-.32-.83s.11-.61,.33-.84c.22-.23,.46-.34,.74-.34,.3,0,.55,.12,.76,.34,.2,.23,.3,.51,.3,.84s-.11,.6-.33,.83c-.22,.22-.47,.34-.76,.34Z" style="fill:#fff;"/><path d="M91.75,94.72c-1.18,0-2.13-.13-2.86-.39s-1.25-.6-1.58-1-.49-.83-.49-1.26c0-.41,.09-.76,.29-1.07s.43-.57,.71-.8c.28-.22,.55-.39,.82-.49-.42-.14-.75-.34-.99-.58-.24-.24-.36-.57-.36-.97,0-.46,.18-.89,.55-1.29s.84-.65,1.42-.74c-.6-.29-1.09-.69-1.45-1.2-.36-.51-.54-1.11-.54-1.79,0-.79,.2-1.47,.61-2.06,.41-.58,.93-1.04,1.57-1.36,.64-.32,1.3-.48,1.98-.48,.43,0,.87,.06,1.3,.19,.43,.12,.83,.31,1.2,.54,.13-.37,.32-.7,.56-.99,.24-.29,.52-.51,.84-.68s.64-.25,.98-.25,.6,.09,.78,.27c.18,.18,.27,.42,.27,.72,0,.09-.03,.2-.08,.33s-.14,.24-.27,.33c-.12,.09-.29,.14-.5,.14-.22,0-.41-.07-.55-.2-.14-.13-.24-.29-.28-.49-.33,.05-.58,.21-.77,.46-.18,.26-.31,.54-.38,.84,.32,.29,.57,.64,.76,1.04,.19,.41,.29,.84,.29,1.3,0,.74-.19,1.39-.58,1.97-.39,.58-.9,1.03-1.53,1.35-.63,.32-1.31,.48-2.05,.48-.25,0-.47-.02-.65-.05-.18-.03-.41-.05-.67-.05-.49,0-.88,.12-1.18,.35s-.41,.52-.31,.85c.1,.31,.43,.52,.96,.6,.54,.08,1.26,.15,2.17,.19,1.01,.04,1.88,.16,2.6,.35,.72,.2,1.28,.5,1.66,.92,.39,.41,.58,.97,.58,1.68,0,.53-.14,1-.42,1.41s-.66,.76-1.12,1.03c-.47,.28-.99,.49-1.56,.63-.57,.14-1.15,.22-1.72,.22Zm-.02-.77c1.13,0,2.01-.21,2.64-.63s.95-.91,.95-1.48c0-.49-.16-.86-.49-1.11s-.78-.43-1.34-.53c-.57-.1-1.21-.15-1.95-.17-.35-.01-.7-.03-1.04-.05-.34-.02-.67-.06-.99-.11-.35,.24-.63,.53-.83,.87-.2,.34-.29,.7-.29,1.08,0,.64,.3,1.16,.92,1.55,.61,.39,1.42,.58,2.43,.58Zm-.26-8.07c.49,0,.89-.12,1.21-.35,.32-.24,.56-.56,.73-.96,.16-.41,.25-.87,.25-1.38,0-.58-.08-1.12-.26-1.62-.17-.5-.42-.9-.76-1.2-.33-.3-.76-.45-1.27-.45-.71,0-1.26,.27-1.64,.8-.39,.53-.58,1.19-.58,1.98,0,.63,.09,1.18,.28,1.66,.18,.48,.45,.85,.8,1.12,.35,.27,.76,.4,1.25,.4Z" style="fill:#fff;"/><path d="M97.89,89.38v-.59c.41,0,.69-.1,.85-.31,.16-.2,.25-.49,.28-.85,.03-.36,.04-.78,.04-1.25l.02-4.49c0-.21,0-.42,0-.63s.03-.43,.07-.65c-.24,.01-.47,.03-.7,.04s-.46,.03-.7,.04v-.83c.58,0,1.01-.03,1.31-.08,.3-.05,.52-.12,.66-.2,.14-.08,.26-.16,.35-.26h.57c.01,.09,.02,.2,.03,.31,0,.12,.02,.25,.03,.39,.01,.14,.02,.31,.02,.49,.29-.25,.61-.47,.96-.67s.72-.35,1.1-.47c.39-.12,.77-.18,1.15-.18,1.14,0,1.98,.36,2.5,1.07,.52,.71,.79,1.83,.79,3.34v3.66c0,.26,0,.5-.01,.7,0,.2-.03,.42-.07,.64,.21-.01,.42-.02,.62-.03,.2,0,.41-.02,.62-.03v.81h-4.02v-.59c.41,0,.69-.1,.85-.31,.16-.2,.25-.49,.28-.85,.03-.36,.04-.78,.04-1.25v-2.76c-.01-1.13-.2-1.98-.56-2.56-.36-.58-.93-.86-1.7-.85-.47,.01-.93,.14-1.39,.37s-.83,.54-1.13,.91c.01,.11,.02,.22,.02,.35v.41l-.02,5.02c0,.26,0,.5,0,.7,0,.2-.03,.42-.07,.64,.21-.01,.42-.02,.62-.03,.2,0,.41-.02,.62-.03v.81h-4.02Z" style="fill:#fff;"/><path d="M119.49,89.7c-.58,0-1.14-.07-1.69-.21-.55-.14-1.05-.36-1.49-.67-.44-.31-.79-.71-1.05-1.2s-.39-1.09-.39-1.78c0-.85,.28-1.61,.84-2.26,.56-.66,1.31-1.19,2.25-1.59-.34-.45-.62-.86-.85-1.25-.22-.39-.39-.78-.49-1.16-.11-.39-.16-.79-.16-1.19,.01-.95,.36-1.7,1.04-2.26,.68-.56,1.55-.84,2.6-.84,.67,0,1.25,.12,1.74,.36,.49,.24,.87,.57,1.14,.98,.27,.41,.4,.88,.4,1.41,0,.49-.1,.95-.31,1.4-.21,.45-.55,.88-1.02,1.29-.47,.41-1.1,.82-1.89,1.23,.35,.37,.75,.77,1.17,1.22s.86,.88,1.29,1.31,.83,.81,1.18,1.15c.07-.24,.11-.46,.15-.68s.05-.41,.05-.58c0-.3-.04-.6-.13-.9-.09-.3-.24-.54-.45-.75-.22-.2-.52-.31-.92-.32v-.65h3.45v.81l-1.63-.08c.21,.17,.36,.39,.45,.67,.09,.28,.14,.6,.16,.96,.01,.25,0,.57-.07,.96-.06,.39-.17,.79-.33,1.21,.14,.13,.3,.27,.46,.42,.16,.15,.34,.3,.52,.46,.59,.53,1.1,.92,1.53,1.17s.75,.38,.96,.38v.65h-1.83c-.12,0-.38-.12-.8-.36-.41-.24-.96-.67-1.64-1.27-.42,.54-.97,1-1.66,1.38-.69,.38-1.55,.57-2.57,.57Zm.24-.99c.83,.03,1.51-.11,2.06-.4s.98-.67,1.31-1.11c-.09-.09-.18-.18-.28-.27-.09-.08-.19-.17-.3-.27-.88-.87-1.66-1.63-2.33-2.3-.68-.67-1.25-1.27-1.72-1.81-.42,.25-.75,.56-.98,.92-.24,.37-.4,.74-.5,1.1-.1,.37-.15,.69-.15,.96,0,.72,.14,1.31,.42,1.77,.28,.46,.64,.8,1.08,1.02,.44,.22,.9,.35,1.39,.37Zm0-7.23c.73-.49,1.28-1.03,1.63-1.62s.53-1.18,.53-1.76c0-.63-.16-1.15-.49-1.57s-.79-.62-1.4-.62c-.54,0-.99,.2-1.35,.6-.36,.4-.54,.97-.54,1.7,0,.56,.15,1.12,.46,1.67,.31,.55,.69,1.08,1.15,1.6Z" style="fill:#fff;"/><path d="M134.1,88.73c.5-.03,.84-.14,1.02-.34,.18-.2,.29-.49,.3-.85,.02-.36,.03-.77,.03-1.23v-8.51c0-.26,0-.51,.02-.76,.01-.24,.03-.46,.04-.66-.24,.01-.47,.03-.71,.04-.24,.01-.47,.03-.71,.04v-.87l4.65-.02c1.18,0,2.26,.14,3.25,.41,.99,.28,1.83,.7,2.55,1.27,.71,.57,1.27,1.29,1.65,2.17,.39,.87,.58,1.9,.58,3.08,0,.91-.16,1.77-.47,2.6-.32,.83-.79,1.56-1.42,2.2-.63,.64-1.42,1.14-2.35,1.52s-2.03,.56-3.26,.56h-5.18v-.65Zm3.07-1.67c0,.35,0,.66,0,.91,0,.25-.02,.46-.05,.63,.35,.01,.68,.02,.98,.03,.29,0,.54,0,.75,0h.38c.85,0,1.62-.16,2.31-.47,.69-.32,1.28-.75,1.77-1.31s.87-1.21,1.14-1.97c.27-.75,.4-1.57,.4-2.45,0-1.25-.23-2.33-.68-3.24-.45-.91-1.15-1.62-2.08-2.13-.93-.5-2.12-.76-3.56-.76-.49,0-.82,.1-1.01,.3-.19,.2-.3,.47-.32,.83-.02,.35-.03,.77-.03,1.24v8.39Z" style="fill:#fff;"/><path d="M153.32,89.7c-.91,0-1.72-.21-2.45-.64-.73-.43-1.3-1.03-1.72-1.81s-.63-1.7-.63-2.77c0-.92,.21-1.78,.62-2.58,.41-.8,.99-1.45,1.74-1.94,.75-.49,1.61-.74,2.6-.74,.55,0,1.07,.09,1.55,.27,.48,.18,.9,.45,1.27,.81s.66,.81,.87,1.36c.21,.54,.32,1.19,.32,1.92l-6.93,.12c0,1,.11,1.87,.33,2.63,.22,.76,.57,1.34,1.05,1.75,.49,.41,1.11,.62,1.87,.62,.41,0,.82-.07,1.25-.22,.43-.14,.82-.34,1.19-.59,.37-.25,.66-.52,.89-.83l.47,.39c-.35,.55-.78,.99-1.28,1.32s-1.01,.56-1.54,.71c-.52,.14-1.01,.22-1.46,.22Zm-2.72-6.83h5.02c0-.47-.07-.93-.21-1.37s-.36-.8-.68-1.08-.73-.42-1.24-.42c-.76,0-1.4,.23-1.9,.68-.51,.45-.84,1.18-1,2.2Z" style="fill:#fff;"/><path d="M162.88,89.44l-2.82-6.42c-.21-.5-.37-.93-.49-1.28s-.2-.65-.25-.89-.08-.43-.09-.57l-.85,.06v-.81h3.62v.59c-.39,0-.65,.1-.76,.31s-.13,.47-.05,.81c.08,.33,.2,.69,.35,1.07l1.52,3.47c.11,.22,.21,.46,.31,.7s.19,.5,.29,.76h.02c.07-.2,.14-.41,.23-.63,.09-.22,.16-.44,.23-.65l1.58-4.31c.11-.32,.22-.59,.33-.83s.2-.41,.26-.53l-1.26,.06v-.81h3.11v.59c-.29,0-.53,.1-.73,.3-.2,.2-.38,.49-.56,.89-.18,.39-.38,.89-.62,1.48l-2.58,6.66h-.79Z" style="fill:#fff;"/><path d="M173.74,89.7c-.91,0-1.72-.21-2.45-.64-.73-.43-1.3-1.03-1.72-1.81s-.63-1.7-.63-2.77c0-.92,.21-1.78,.62-2.58,.41-.8,.99-1.45,1.74-1.94,.75-.49,1.61-.74,2.6-.74,.55,0,1.07,.09,1.55,.27,.48,.18,.9,.45,1.27,.81s.66,.81,.87,1.36c.21,.54,.32,1.19,.32,1.92l-6.93,.12c0,1,.11,1.87,.33,2.63,.22,.76,.57,1.34,1.05,1.75,.49,.41,1.11,.62,1.87,.62,.41,0,.82-.07,1.25-.22,.43-.14,.82-.34,1.19-.59,.37-.25,.66-.52,.89-.83l.47,.39c-.35,.55-.78,.99-1.28,1.32s-1.01,.56-1.54,.71c-.52,.14-1.01,.22-1.46,.22Zm-2.72-6.83h5.02c0-.47-.07-.93-.21-1.37s-.36-.8-.68-1.08-.73-.42-1.24-.42c-.76,0-1.4,.23-1.9,.68-.51,.45-.84,1.18-1,2.2Z" style="fill:#fff;"/><path d="M179.46,88.79c.41,0,.69-.1,.85-.31,.16-.2,.25-.49,.28-.85,.03-.36,.04-.78,.04-1.25v-9.32c0-.21,0-.41,0-.6,0-.19,.02-.42,.05-.68-.24,.01-.47,.03-.7,.04-.23,.01-.46,.03-.7,.04v-.83c.58,0,1.03-.03,1.35-.08,.32-.05,.56-.12,.73-.2,.16-.08,.29-.16,.38-.26h.57l.02,12.78c0,.26,0,.5-.02,.7-.01,.2-.04,.42-.08,.64,.21-.01,.42-.02,.62-.03,.2,0,.41-.02,.62-.03v.81h-4.02v-.59Z" style="fill:#fff;"/><path d="M189.89,89.7c-.92,0-1.75-.21-2.5-.64-.75-.43-1.34-1.02-1.78-1.77-.44-.75-.66-1.62-.66-2.59,0-1.04,.22-1.97,.65-2.8,.43-.83,1.02-1.48,1.77-1.96s1.59-.72,2.52-.72,1.75,.22,2.5,.66c.75,.44,1.35,1.03,1.79,1.78,.45,.75,.67,1.6,.67,2.56,0,1.01-.22,1.93-.66,2.77-.44,.83-1.03,1.49-1.78,1.98-.75,.49-1.59,.73-2.52,.73Zm.16-.79c.7,0,1.25-.2,1.65-.59,.41-.39,.7-.91,.88-1.54,.18-.63,.27-1.29,.27-1.99,0-.59-.06-1.17-.17-1.74-.11-.57-.29-1.09-.52-1.56s-.54-.84-.92-1.11c-.38-.28-.82-.41-1.35-.41-.68,0-1.24,.2-1.67,.59-.43,.39-.75,.91-.96,1.54s-.3,1.31-.3,2.03c0,.81,.11,1.58,.33,2.31,.22,.73,.56,1.32,1.02,1.78,.46,.46,1.04,.69,1.73,.69Z" style="fill:#fff;"/><path d="M196.35,94.4v-.59c.41,0,.69-.1,.85-.3,.16-.2,.25-.49,.28-.85,.03-.36,.04-.78,.04-1.25l.04-9.51c0-.21,0-.42,0-.63s.03-.43,.07-.65c-.24,.01-.47,.03-.7,.04-.23,.01-.46,.03-.7,.04v-.83c.58,0,1.01-.03,1.31-.08,.29-.05,.51-.12,.65-.2,.14-.08,.25-.16,.34-.26h.59c.01,.13,.03,.29,.04,.46,.01,.18,.03,.38,.04,.6,.39-.35,.86-.64,1.41-.86,.54-.22,1.09-.33,1.64-.33,.76,0,1.47,.2,2.13,.59,.66,.39,1.19,.96,1.6,1.68,.41,.73,.61,1.6,.61,2.61,0,1.12-.23,2.09-.7,2.93-.47,.84-1.08,1.49-1.84,1.96-.76,.47-1.59,.7-2.48,.7-.46,0-.88-.06-1.27-.17-.39-.11-.75-.27-1.09-.48v3.27c0,.26,0,.5,0,.7,0,.2-.03,.42-.07,.64,.21-.01,.42-.02,.62-.03,.2,0,.41-.02,.62-.03v.81h-4.02Zm5.18-5.49c.63,0,1.17-.19,1.62-.58,.45-.39,.8-.92,1.04-1.59,.24-.68,.36-1.45,.36-2.31,0-.71-.1-1.39-.31-2.04-.2-.65-.53-1.18-.96-1.58-.44-.41-1.02-.61-1.74-.61-.45,0-.88,.11-1.29,.33-.41,.22-.76,.48-1.03,.78,0,.05,0,.13,0,.23s0,.27,0,.51v1.08c0,.48,0,1.13,0,1.94,0,.81,0,1.84,0,3.09,.33,.25,.69,.44,1.07,.57,.39,.13,.8,.2,1.23,.2Z" style="fill:#fff;"/><path d="M208.28,89.38v-.59c.41,0,.69-.1,.85-.31,.16-.2,.25-.49,.28-.85,.03-.36,.04-.78,.04-1.25v-4.49c0-.21,0-.42,0-.63s.03-.43,.07-.65c-.24,.01-.47,.03-.7,.04-.23,.01-.46,.03-.7,.04v-.83c.58,0,1.01-.03,1.31-.08,.29-.05,.51-.12,.66-.2,.14-.08,.26-.16,.35-.26h.57c.03,.13,.04,.28,.05,.45,0,.17,.02,.37,.03,.59,.39-.34,.85-.62,1.36-.84,.51-.22,1.02-.33,1.54-.33,.66,0,1.21,.12,1.65,.35s.79,.56,1.04,.96c.45-.37,.96-.68,1.55-.94,.58-.26,1.16-.38,1.72-.38,1.14,0,1.98,.34,2.52,1.03,.54,.69,.79,1.81,.77,3.38l-.02,3.66c0,.26,0,.5,0,.7,0,.2-.03,.42-.07,.64,.21-.01,.42-.02,.62-.03,.2,0,.41-.02,.62-.03v.81h-4.02v-.59c.41,0,.69-.1,.85-.31,.16-.2,.25-.49,.28-.85,.03-.36,.04-.78,.04-1.25v-2.76c0-1.13-.18-1.98-.54-2.54-.36-.56-.93-.84-1.7-.83-.41,0-.81,.09-1.22,.28-.41,.18-.76,.41-1.06,.69,.07,.21,.12,.44,.15,.68,.03,.24,.05,.5,.05,.76-.01,.76-.02,1.53-.02,2.3s0,1.55-.02,2.32c0,.26,0,.5,0,.7,0,.2-.03,.42-.07,.64,.21-.01,.42-.02,.62-.03,.2,0,.41-.02,.62-.03v.81h-4.02v-.59c.41,0,.69-.1,.84-.31,.15-.2,.24-.49,.28-.85,.03-.36,.05-.78,.05-1.25l.02-2.76c.01-1.13-.15-1.98-.49-2.56-.34-.58-.9-.86-1.67-.85-.41,0-.81,.09-1.2,.27-.39,.18-.73,.4-1,.68,0,.16,0,.33,0,.5,0,.18,0,.36,0,.56v5.06c0,.26,0,.5,0,.7,0,.2-.03,.42-.07,.64,.21-.01,.42-.02,.62-.03,.2,0,.41-.02,.62-.03v.81h-4.02Z" style="fill:#fff;"/><path d="M230.66,89.7c-.91,0-1.72-.21-2.45-.64-.73-.43-1.3-1.03-1.72-1.81s-.63-1.7-.63-2.77c0-.92,.21-1.78,.62-2.58,.41-.8,.99-1.45,1.74-1.94,.75-.49,1.61-.74,2.6-.74,.55,0,1.07,.09,1.55,.27,.48,.18,.9,.45,1.27,.81s.66,.81,.87,1.36c.21,.54,.32,1.19,.32,1.92l-6.93,.12c0,1,.11,1.87,.33,2.63,.22,.76,.57,1.34,1.05,1.75,.49,.41,1.11,.62,1.87,.62,.41,0,.82-.07,1.25-.22,.43-.14,.82-.34,1.19-.59,.37-.25,.66-.52,.89-.83l.47,.39c-.35,.55-.78,.99-1.28,1.32s-1.01,.56-1.54,.71c-.52,.14-1.01,.22-1.46,.22Zm-2.72-6.83h5.02c0-.47-.07-.93-.21-1.37s-.36-.8-.68-1.08-.73-.42-1.24-.42c-.76,0-1.4,.23-1.9,.68-.51,.45-.84,1.18-1,2.2Z" style="fill:#fff;"/><path d="M236.56,89.38v-.59c.41,0,.69-.1,.85-.31,.16-.2,.25-.49,.28-.85,.03-.36,.04-.78,.04-1.25l.02-4.49c0-.21,0-.42,0-.63s.03-.43,.07-.65c-.24,.01-.47,.03-.7,.04s-.46,.03-.7,.04v-.83c.58,0,1.01-.03,1.31-.08,.3-.05,.52-.12,.66-.2,.14-.08,.26-.16,.35-.26h.57c.01,.09,.02,.2,.03,.31,0,.12,.02,.25,.03,.39,.01,.14,.02,.31,.02,.49,.29-.25,.61-.47,.96-.67s.72-.35,1.1-.47c.39-.12,.77-.18,1.15-.18,1.14,0,1.98,.36,2.5,1.07,.52,.71,.79,1.83,.79,3.34v3.66c0,.26,0,.5-.01,.7,0,.2-.03,.42-.07,.64,.21-.01,.42-.02,.62-.03,.2,0,.41-.02,.62-.03v.81h-4.02v-.59c.41,0,.69-.1,.85-.31,.16-.2,.25-.49,.28-.85,.03-.36,.04-.78,.04-1.25v-2.76c-.01-1.13-.2-1.98-.56-2.56-.36-.58-.93-.86-1.7-.85-.47,.01-.93,.14-1.39,.37s-.83,.54-1.13,.91c.01,.11,.02,.22,.02,.35v.41l-.02,5.02c0,.26,0,.5,0,.7,0,.2-.03,.42-.07,.64,.21-.01,.42-.02,.62-.03,.2,0,.41-.02,.62-.03v.81h-4.02Z" style="fill:#fff;"/><path d="M252.04,89.7c-.3,0-.61-.04-.92-.13-.32-.09-.61-.25-.88-.5-.27-.25-.48-.61-.64-1.09-.16-.48-.24-1.11-.24-1.9l.04-5.71-1.52,.02v-.85c.34-.01,.69-.14,1.04-.38,.35-.24,.67-.57,.96-.99s.48-.88,.58-1.38h.67v2.76h3.31v.77l-3.31,.04-.04,5.47c0,.59,.05,1.09,.15,1.51,.1,.41,.26,.73,.48,.94,.22,.21,.51,.31,.87,.31s.71-.1,1.03-.31c.32-.21,.61-.5,.86-.87l.53,.43c-.29,.43-.57,.77-.86,1.02-.28,.25-.55,.44-.82,.56-.26,.12-.5,.2-.73,.24-.22,.03-.41,.05-.57,.05Z" style="fill:#fff;"/></g></g></svg>