<?xml version="1.0" encoding="UTF-8"?><svg id="b" xmlns="http://www.w3.org/2000/svg" viewBox="0 0 177.59 98.57"><g id="c"><g><path d="M24.17,75.28c-4.23,0-7.97-.94-11.21-2.82-3.25-1.88-5.77-4.55-7.56-8-1.8-3.45-2.69-7.52-2.69-12.21,0-4.06,.9-7.85,2.69-11.39,1.8-3.53,4.33-6.39,7.61-8.56,3.27-2.17,7.08-3.26,11.43-3.26,2.43,0,4.81,.33,7.13,1,2.32,.67,4.42,1.81,6.3,3.43,1.88,1.62,3.39,3.82,4.52,6.61,1.13,2.78,1.67,6.26,1.61,10.43l-28.51,.52c0,3.13,.39,5.94,1.17,8.43,.78,2.49,2.07,4.46,3.87,5.91,1.79,1.45,4.2,2.17,7.21,2.17,1.16,0,2.48-.2,3.96-.61,1.48-.4,2.98-1.09,4.52-2.04,1.54-.96,2.97-2.25,4.3-3.87l3.91,3.65c-2.09,2.96-4.32,5.2-6.69,6.74-2.38,1.54-4.74,2.56-7.08,3.09-2.35,.52-4.51,.78-6.48,.78Zm-8.17-30.34h15.99c-.06-2.43-.39-4.36-1-5.78-.61-1.42-1.43-2.45-2.48-3.09-1.04-.64-2.26-.96-3.65-.96-2.55,0-4.55,.91-6,2.74-1.45,1.83-2.41,4.19-2.87,7.08Z" style="fill:#fff;"/><path d="M67.54,75.28c-1.74,0-3.42-.2-5.04-.61-1.62-.41-3.07-1.17-4.35-2.3-1.28-1.13-2.29-2.8-3.04-5-.75-2.2-1.13-5.13-1.13-8.78l.17-20.95h-5.91v-7.21c1.8-.06,3.53-.67,5.22-1.83,1.68-1.16,3.11-2.67,4.3-4.52,1.19-1.85,1.98-3.79,2.39-5.82h6.43l-.09,12.17h11.04v6.69l-11.04,.26-.09,21.38c0,1.33,.13,2.65,.39,3.96s.77,2.38,1.52,3.22c.75,.84,1.85,1.26,3.3,1.26,.81,0,1.93-.29,3.35-.87,1.42-.58,2.94-2.03,4.56-4.35l4.17,3.91c-1.57,2.32-3.19,4.12-4.87,5.39-1.68,1.28-3.29,2.2-4.82,2.78-1.54,.58-2.88,.93-4.04,1.04-1.16,.12-1.97,.17-2.43,.17Z" style="fill:#fff;"/><path d="M102.4,74.15l-13.73-30.16c-.64-1.45-1.09-2.55-1.35-3.3-.26-.75-.43-1.4-.52-1.96-.09-.55-.22-1.17-.39-1.87l-3.22,.17v-6.61h20.34v5.56c-1.22,.06-2.03,.41-2.43,1.04-.41,.64-.55,1.46-.43,2.48,.12,1.01,.38,2.1,.78,3.26l4.52,11.13c.46,1.1,.93,2.23,1.39,3.39,.46,1.16,.93,2.32,1.39,3.48h.09c.46-1.22,.91-2.43,1.35-3.65s.85-2.43,1.26-3.65l3.74-10.61c.52-1.45,1-2.61,1.43-3.48s.91-1.77,1.43-2.7l-5.39,.35v-6.61h16.52v5.56c-1.33,.23-2.52,.97-3.56,2.22-1.04,1.25-1.94,2.64-2.7,4.17-.75,1.54-1.36,2.88-1.83,4.04l-11.13,27.73h-7.56Z" style="fill:#fff;"/><path d="M153.25,75.28c-4.17,0-7.94-.9-11.3-2.69-3.36-1.8-6.01-4.36-7.95-7.69-1.94-3.33-2.91-7.26-2.91-11.78,0-4.81,1-9.02,3-12.65,2-3.62,4.66-6.43,8-8.43,3.33-2,6.97-3,10.91-3,4.17,0,7.91,.9,11.21,2.7,3.3,1.8,5.91,4.36,7.82,7.69,1.91,3.33,2.87,7.32,2.87,11.95,0,4.87-.93,9.1-2.78,12.69-1.86,3.59-4.4,6.36-7.65,8.3-3.25,1.94-6.98,2.91-11.21,2.91Zm.35-6.17c2.32-.06,4.07-.87,5.26-2.43,1.19-1.56,2.01-3.53,2.48-5.91,.46-2.38,.7-4.78,.7-7.21,0-2.14-.16-4.32-.48-6.52-.32-2.2-.83-4.2-1.52-6-.7-1.8-1.64-3.25-2.82-4.35-1.19-1.1-2.65-1.62-4.39-1.56-2.26,.06-4.04,.87-5.35,2.43-1.3,1.57-2.23,3.52-2.78,5.87-.55,2.35-.83,4.8-.83,7.34,0,2.96,.32,5.85,.96,8.69,.64,2.84,1.67,5.17,3.09,7s3.32,2.71,5.69,2.65Z" style="fill:#fff;"/></g></g></svg>