<?xml version="1.0" encoding="UTF-8"?>
<svg id="Layer_2" data-name="Layer 2" xmlns="http://www.w3.org/2000/svg" viewBox="0 0 150.86 174.22">
  <defs>
    <style>
      .cls-1 {
        fill: #fff;
      }

      .cls-2 {
        fill: #ec2848;
      }
    </style>
  </defs>
  <g id="Layer_1-2" data-name="Layer 1">
    <rect class="cls-2" x="4.83" y="16.51" width="141.21" height="141.21" rx="70.6" ry="70.6"/>
    <g id="c">
      <g>
        <g>
          <path class="cls-1" d="m.5,130.37V43.85L75.43.58l74.93,43.27v86.53l-74.93,43.27L.5,130.37Zm74.93,38.3l70.64-40.78V46.32L75.43,5.55,4.79,46.32v81.57l70.64,40.78Z"/>
          <path class="cls-1" d="m75.43,1.15l74.43,42.98v85.95l-74.43,42.98L1,130.08V44.14L75.43,1.15m0,168.09l71.14-41.07V46.03L75.43,4.97,4.29,46.03v82.15l71.14,41.07M75.43,0l-.5.29L.5,43.27l-.5.29v87.1l.5.29,74.43,42.98.5.29.5-.29,74.43-42.98.5-.29V43.56l-.5-.29L75.93.29l-.5-.29h0ZM5.29,46.61L75.43,6.13l70.14,40.48v80.99l-70.14,40.5L5.29,127.6V46.61h0Z"/>
        </g>
        <g>
          <path class="cls-1" d="m74.93,150.72l-54.83-31.67v-63.9l55.33-31.96,55.34,31.96v63.91l-55.84,32.24v-.59Zm.5-4.68l51.04-29.47v-58.94l-51.04-29.47-51.04,29.47v58.94l51.04,29.47Z"/>
          <path class="cls-1" d="m75.43,23.78l54.84,31.67v63.33l-54.84,31.67v-.02l-54.84-31.67v-63.32l54.84-31.67m0,122.83l51.54-29.76v-59.52l-51.54-29.76-51.54,29.76v59.52l51.54,29.76m0-123.99l-.5.29-54.84,31.67-.5.29v64.47l.5.29,54.34,31.38v1.15l1.5-.85,54.84-31.67.5-.29V54.87l-.5-.29-54.84-31.67-.5-.29h0ZM24.89,57.92l50.54-29.18,50.54,29.18v58.36l-50.54,29.18-50.54-29.18v-58.36h0Z"/>
        </g>
        <g>
          <path class="cls-1" d="m39.69,107.74v-41.28l35.74-20.64,35.74,20.64v41.28l-35.74,20.64-35.74-20.64Zm35.74,15.67l31.44-18.15v-36.31l-31.44-18.15-31.44,18.15v36.31l31.44,18.15Z"/>
          <path class="cls-1" d="m75.43,46.4l35.24,20.35v40.7l-35.24,20.35-35.24-20.35v-40.7l35.24-20.35m0,77.59l31.94-18.44v-36.89l-31.94-18.44-31.94,18.44v36.89l31.94,18.44m0-78.74l-.5.29-35.24,20.35-.5.29v41.86l.5.29,35.24,20.35.5.29.5-.29,35.24-20.35.5-.29v-41.86l-.5-.29-35.24-20.35-.5-.29h0Zm-30.94,23.99l30.94-17.87,30.94,17.87v35.73l-30.94,17.87-30.94-17.87v-35.73h0Z"/>
        </g>
        <g>
          <path class="cls-1" d="m59.29,96.43v-18.65l16.14-9.32,16.14,9.32v18.65l-16.14,9.32-16.14-9.32Zm16.14,4.35l11.85-6.84v-13.68l-11.85-6.84-11.85,6.84v13.68l11.85,6.84Z"/>
          <path class="cls-1" d="m75.43,69.03l15.64,9.04v18.07l-15.64,9.04-15.64-9.04v-18.07l15.64-9.04m0,32.33l12.35-7.13v-14.26l-12.35-7.13-12.35,7.13v14.26l12.35,7.13m0-33.48l-.5.29-15.64,9.04-.5.29v19.23l.5.29,15.64,9.04.5.29.5-.29,15.64-9.04.5-.29v-19.23l-.5-.29-15.64-9.04-.5-.29h0Zm-11.35,12.68l11.35-6.55,11.35,6.55v13.1l-11.35,6.55-11.35-6.55v-13.1h0Z"/>
        </g>
        <g>
          <rect class="cls-1" x="29.89" y="27.61" width="4.29" height="68.89" transform="translate(-37.72 58.76) rotate(-59.99)"/>
          <path class="cls-1" d="m3.46,43.66l58.79,33.94-1.65,2.85L1.81,46.51l1.65-2.85m-.37-1.37l-.5.87-1.65,2.85-.5.87.87.5,58.79,33.94.87.5.5-.87,1.65-2.85.5-.87-.87-.5L3.96,42.79l-.87-.5h0Z"/>
        </g>
        <g>
          <rect class="cls-1" x="-2.41" y="110.02" width="68.89" height="4.29" transform="translate(-51.79 31.05) rotate(-30)"/>
          <path class="cls-1" d="m60.61,93.77l1.65,2.85L3.47,130.57l-1.65-2.85,58.79-33.94m.37-1.37l-.87.5L1.32,126.85l-.87.5.5.87,1.65,2.85.5.87.87-.5,58.79-33.94.87-.5-.5-.87-1.65-2.85-.5-.87h0Z"/>
        </g>
        <g>
          <rect class="cls-1" x="73.29" y="102.77" width="4.29" height="68.89"/>
          <path class="cls-1" d="m77.08,103.27v67.89h-3.29v-67.89h3.29m1-1h-5.29v69.89h5.29v-69.89h0Z"/>
        </g>
        <g>
          <rect class="cls-1" x="116.68" y="77.72" width="4.29" height="68.89" transform="translate(-37.72 158.99) rotate(-60)"/>
          <path class="cls-1" d="m90.25,93.76l58.79,33.94-1.65,2.85-58.79-33.94,1.65-2.85m-.37-1.37l-.5.87-1.65,2.85-.5.87.87.5,58.79,33.94.87.5.5-.87,1.65-2.85.5-.87-.87-.5-58.79-33.94-.87-.5h0Z"/>
        </g>
        <g>
          <rect class="cls-1" x="84.38" y="59.92" width="68.89" height="4.29" transform="translate(-15.12 67.73) rotate(-30)"/>
          <path class="cls-1" d="m147.4,43.67l1.65,2.85-58.79,33.94-1.65-2.85,58.79-33.94m.37-1.37l-.87.5-58.79,33.94-.87.5.5.87,1.65,2.85.5.87.87-.5,58.79-33.94.87-.5-.5-.87-1.65-2.85-.5-.87h0Z"/>
        </g>
        <g>
          <rect class="cls-1" x="73.29" y="2.56" width="4.29" height="68.89"/>
          <path class="cls-1" d="m77.08,3.06v67.89h-3.29V3.06h3.29m1-1h-5.29v69.89h5.29V2.06h0Z"/>
        </g>
      </g>
    </g>
  </g>
</svg>