<?xml version="1.0" encoding="UTF-8"?>
<svg id="Layer_2" data-name="Layer 2" xmlns="http://www.w3.org/2000/svg" viewBox="0 0 170.54 141.21">
  <defs>
    <style>
      .cls-1 {
        fill: #fff;
      }

      .cls-2 {
        fill: #ec2848;
      }
    </style>
  </defs>
  <g id="Layer_1-2" data-name="Layer 1">
    <rect class="cls-2" x="29.34" y="0" width="141.21" height="141.21" rx="70.6" ry="70.6"/>
    <g id="c">
      <g>
        <g>
          <path class="cls-1" d="m.5,100.65v-60.09L52.54,10.51l52.04,30.05v60.09l-52.04,30.05L.5,100.65Zm52.04,26.25l48.76-28.15v-56.3L52.54,14.3,3.78,42.45v56.3l48.76,28.15Z"/>
          <path class="cls-1" d="m52.54,11.08l51.54,29.76v59.51l-51.54,29.76L1,100.36v-59.51L52.54,11.08m0,116.4l49.26-28.44v-56.88L52.54,13.73,3.28,42.16v56.88l49.26,28.44m0-117.55l-.5.29L.5,39.98l-.5.29v60.67l.5.29,51.54,29.76.5.29.5-.29,51.54-29.76.5-.29v-60.67l-.5-.29L53.04,10.22l-.5-.29h0ZM4.28,42.73L52.54,14.88l48.26,27.85v55.73l-48.26,27.86L4.28,98.46v-55.73h0Z"/>
        </g>
        <g>
          <path class="cls-1" d="m52.04,114.74l-37.97-21.93v-44.42l38.47-22.21,38.47,22.21v44.43l-38.97,22.5v-.59Zm.5-3.51l35.19-20.32v-40.63l-35.19-20.32-35.19,20.32v40.63l35.19,20.32Z"/>
          <path class="cls-1" d="m52.54,26.75l37.97,21.93v43.85l-37.97,21.93h0s-37.97-21.94-37.97-21.94v-43.84l37.97-21.93m0,85.06l35.69-20.61v-41.21l-35.69-20.61-35.69,20.61v41.21l35.69,20.61m0-86.21l-.5.29L14.07,47.81l-.5.29v45l.5.29,37.47,21.64v1.15l1.5-.86,37.97-21.93.5-.29v-45.01l-.5-.29-37.97-21.93-.5-.29h0Zm-34.69,24.97l34.69-20.03,34.69,20.03v40.06l-34.69,20.03-34.69-20.03v-40.06h0Z"/>
        </g>
        <g>
          <path class="cls-1" d="m27.64,84.98v-28.76l24.9-14.38,24.9,14.38v28.76l-24.9,14.38-24.9-14.38Zm24.9,10.58l21.62-12.48v-24.96l-21.62-12.48-21.62,12.48v24.96l21.62,12.48Z"/>
          <path class="cls-1" d="m52.54,42.41l24.4,14.09v28.18l-24.4,14.09-24.4-14.09v-28.18l24.4-14.09m0,53.73l22.12-12.77v-25.54l-22.12-12.77-22.12,12.77v25.54l22.12,12.77m0-54.88l-.5.29-24.4,14.09-.5.29v29.34l.5.29,24.4,14.09.5.29.5-.29,24.4-14.09.5-.29v-29.34l-.5-.29-24.4-14.09-.5-.29h0Zm-21.12,17.15l21.12-12.19,21.12,12.19v24.39l-21.12,12.19-21.12-12.19v-24.39h0Z"/>
        </g>
        <g>
          <path class="cls-1" d="m41.21,77.14v-13.09l11.33-6.55,11.33,6.55v13.09l-11.33,6.54-11.33-6.54Zm11.33,2.75l8.05-4.65v-9.29l-8.05-4.65-8.05,4.65v9.29l8.05,4.65Z"/>
          <path class="cls-1" d="m52.54,58.08l10.83,6.26v12.51l-10.83,6.26-10.83-6.26v-12.51l10.83-6.26m0,22.39l8.55-4.94v-9.87l-8.55-4.94-8.55,4.94v9.87l8.55,4.94m0-23.54l-.5.29-10.83,6.26-.5.29v13.67l.5.29,10.83,6.26.5.29.5-.29,10.83-6.26.5-.29v-13.67l-.5-.29-10.83-6.26-.5-.29h0Zm-7.55,9.31l7.55-4.36,7.55,4.36v8.72l-7.55,4.36-7.55-4.36v-8.72h0Z"/>
        </g>
        <g>
          <rect class="cls-1" x="20.85" y="29.25" width="3.28" height="48.01" transform="translate(-34.87 46.1) rotate(-59.99)"/>
          <path class="cls-1" d="m2.7,40.51l40.71,23.51-1.14,1.98L1.56,42.49l1.14-1.98m-.37-1.37l-.5.87-1.14,1.98-.5.87.87.5,40.71,23.51.87.5.5-.87,1.14-1.98.5-.87-.87-.5L3.2,39.65l-.87-.5h0Z"/>
        </g>
        <g>
          <rect class="cls-1" x="-1.51" y="86.32" width="48.01" height="3.28" transform="translate(-40.97 23.03) rotate(-30)"/>
          <path class="cls-1" d="m42.28,75.22l1.14,1.98L2.71,100.7l-1.14-1.98,40.71-23.51m.37-1.37l-.87.5L1.07,97.85l-.87.5.5.87,1.14,1.98.5.87.87-.5,40.71-23.51.87-.5-.5-.87-1.14-1.98-.5-.87h0Z"/>
        </g>
        <g>
          <rect class="cls-1" x="50.9" y="81.29" width="3.28" height="48.01"/>
          <path class="cls-1" d="m53.68,81.79v47.01h-2.28v-47.01h2.28m1-1h-4.28v49.01h4.28v-49.01h0Z"/>
        </g>
        <g>
          <rect class="cls-1" x="80.95" y="63.95" width="3.28" height="48.01" transform="translate(-34.88 115.49) rotate(-59.99)"/>
          <path class="cls-1" d="m62.8,75.21l40.71,23.51-1.14,1.98-40.71-23.51,1.14-1.98m-.37-1.37l-.5.87-1.14,1.98-.5.87.87.5,40.71,23.51.87.5.5-.87,1.14-1.98.5-.87-.87-.5-40.71-23.51-.87-.5h0Z"/>
        </g>
        <g>
          <rect class="cls-1" x="58.58" y="51.62" width="48.01" height="3.28" transform="translate(-15.57 48.43) rotate(-30)"/>
          <path class="cls-1" d="m102.37,40.52l1.14,1.98-40.71,23.51-1.14-1.98,40.71-23.51m.37-1.37l-.87.5-40.71,23.51-.87.5.5.87,1.14,1.98.5.87.87-.5,40.71-23.51.87-.5-.5-.87-1.14-1.98-.5-.87h0Z"/>
        </g>
        <g>
          <rect class="cls-1" x="50.9" y="11.9" width="3.28" height="48.01"/>
          <path class="cls-1" d="m53.68,12.4v47.01h-2.28V12.4h2.28m1-1h-4.28v49.01h4.28V11.4h0Z"/>
        </g>
      </g>
    </g>
  </g>
</svg>