<svg width="211" height="120" viewBox="0 0 211 120" fill="none" xmlns="http://www.w3.org/2000/svg">
<path d="M26.7621 77.1719L27.6218 76.7831C28.9559 79.0076 31.1195 79.6628 33.5643 78.5573C34.0674 78.3298 34.4833 78.0756 34.8384 77.801L34.363 76.7497C34.0151 77.0229 33.58 77.2693 33.0835 77.4938C31.3851 78.2618 29.8512 77.7885 28.8369 76.2347L32.0856 74.7657L31.7463 74.0152L28.4426 75.509L28.1003 74.7521C28.0601 74.6631 28.0202 74.575 27.9864 74.4831L31.2845 72.9918L30.9455 72.2421L27.7388 73.6921C27.3586 72.0153 28.0375 70.6494 29.6582 69.9166C30.1548 69.6921 30.6268 69.5274 31.0647 69.4531L30.5896 68.4025C30.1016 68.4922 29.627 68.6433 29.177 68.8523C26.809 69.9231 25.8526 71.8838 26.5084 74.2475L25.6212 74.6487L25.9605 75.3991L26.7774 75.0298L27.24 76.0528L26.4231 76.4222L26.7621 77.1719Z" fill="#ABED26"/>
<path d="M53.7016 61.5068L54.641 61.5945C54.6994 64.1877 56.2552 65.8278 58.9267 66.0771C59.4764 66.1285 59.9636 66.1133 60.4081 66.0505L60.5153 64.9017C60.0778 64.9669 59.5778 64.9657 59.0352 64.9151C57.1793 64.7418 56.0807 63.5714 55.9683 61.7192L59.5183 62.0506L59.5948 61.2305L55.9848 60.8935L56.062 60.0664C56.0711 59.9692 56.0801 59.8729 56.0962 59.7763L59.7001 60.1127L59.7765 59.2935L56.2725 58.9664C56.772 57.3212 58.0379 56.4704 59.8089 56.6357C60.3515 56.6863 60.8432 56.7768 61.2604 56.9289L61.3676 55.781C60.8992 55.6174 60.4119 55.5138 59.9175 55.4727C57.3299 55.2312 55.5284 56.4616 54.9285 58.8401L53.959 58.7496L53.8824 59.5697L54.775 59.653L54.6707 60.7709L53.7781 60.6876L53.7016 61.5068Z" fill="#ABED26"/>
<path d="M40.3415 110.039L41.2809 110.126C41.3393 112.72 42.8951 114.36 45.5666 114.609C46.1163 114.66 46.6035 114.645 47.048 114.582L47.1552 113.434C46.7177 113.499 46.2177 113.498 45.6751 113.447C43.8192 113.274 42.7206 112.103 42.6082 110.251L46.1582 110.583L46.2347 109.763L42.6247 109.426L42.7019 108.598C42.711 108.501 42.7199 108.405 42.7361 108.308L46.34 108.645L46.4164 107.825L42.9124 107.498C43.4119 105.853 44.6778 105.002 46.4488 105.168C46.9914 105.218 47.4831 105.309 47.9003 105.461L48.0075 104.313C47.539 104.149 47.0518 104.046 46.5573 104.005C43.9698 103.763 42.1683 104.994 41.5683 107.372L40.5989 107.282L40.5223 108.102L41.4149 108.185L41.3106 109.303L40.418 109.22L40.3415 110.039Z" fill="#ABED26"/>
<path d="M26.953 97.4908C27.5749 98.8181 29.0267 99.3891 30.7393 98.9032L31.1064 99.9032L31.9428 99.5962L31.5757 98.5962C33.3421 97.7807 34.0911 96.3308 33.5289 94.7995C33.0489 93.4919 32.0117 93.0141 30.2443 93.1796L29.6088 93.2383L28.461 90.1116C29.394 89.8718 30.1834 90.1456 30.6089 90.8312L31.7877 90.3984C31.1715 89.1315 29.7231 88.5919 28.0809 89.0762L27.7162 88.0828L26.8798 88.3899L27.252 89.4039C25.7665 90.1638 25.0741 91.5771 25.5825 92.962C26.0215 94.1577 27.1068 94.7196 28.5971 94.5775L29.1352 94.5311L30.3522 97.8462C29.3794 98.0446 28.5549 97.7594 28.1246 97.0607L26.953 97.4908ZM28.5142 93.3378C27.5984 93.4286 26.9821 93.1304 26.7433 92.4799C26.4583 91.7035 26.8124 90.9231 27.6349 90.4466L28.69 93.3209L28.5142 93.3378ZM30.3552 94.4089C31.4848 94.2957 32.0998 94.5702 32.3745 95.3185C32.7057 96.2207 32.264 97.065 31.1956 97.5608L30.0499 94.4398L30.3549 94.4081L30.3552 94.4089Z" fill="#ABED26"/>
<path d="M94.9113 81.9077C94.8714 83.373 95.9125 84.5349 97.661 84.8693L97.5402 85.9277L98.4255 86.0287L98.5462 84.9703C100.491 85.0343 101.811 84.0748 101.996 82.4541C102.154 81.0702 101.441 80.1777 99.7875 79.5323L99.1932 79.2996L99.5708 75.9903C100.512 76.1947 101.095 76.7938 101.167 77.5974L102.415 77.7397C102.433 76.331 101.381 75.1987 99.6958 74.8945L99.8158 73.843L98.9306 73.742L98.8081 74.8152C97.1395 74.8277 95.8865 75.7798 95.7193 77.2456C95.5749 78.5111 96.2926 79.5003 97.6881 80.0422L98.1898 80.2423L97.7894 83.7509C96.8311 83.4916 96.2223 82.8667 96.1514 82.0492L94.9113 81.9077ZM98.1704 78.8972C97.3113 78.5673 96.8943 78.0242 96.9729 77.3357C97.0666 76.514 97.7334 75.9755 98.6822 75.9189L98.3351 78.961L98.1704 78.8972ZM99.3349 80.6807C100.395 81.0864 100.821 81.6077 100.731 82.3998C100.622 83.3546 99.8485 83.9109 98.6713 83.8744L99.0481 80.5712L99.335 80.6798L99.3349 80.6807Z" fill="#ABED26"/>
<path d="M2.41909 79.5134C2.37916 80.9787 3.42022 82.1406 5.16874 82.475L5.04797 83.5334L5.93322 83.6344L6.05398 82.576C7.99843 82.64 9.31851 81.6805 9.50342 80.0598C9.66132 78.6759 8.94892 77.7834 7.29522 77.138L6.70099 76.9053L7.07857 73.596C8.01994 73.8004 8.60247 74.3995 8.675 75.2031L9.92267 75.3454C9.94067 73.9367 8.88849 72.8044 7.2036 72.5002L7.32356 71.4488L6.43831 71.3478L6.31586 72.421C4.64729 72.4334 3.39426 73.3855 3.22702 74.8513C3.08262 76.1168 3.80033 77.106 5.19586 77.6479L5.69752 77.848L5.2972 81.3566C4.33886 81.0974 3.73006 80.4724 3.65912 79.6549L2.41909 79.5134ZM5.67817 76.5029C4.81903 76.173 4.40209 75.6299 4.48065 74.9414C4.57439 74.1198 5.24114 73.5813 6.18994 73.5246L5.84285 76.5667L5.67817 76.5029ZM6.84262 78.2864C7.90289 78.6922 8.32921 79.2134 8.23883 80.0055C8.12989 80.9603 7.35623 81.5166 6.17902 81.4801L6.5559 78.177L6.84272 78.2855L6.84262 78.2864Z" fill="#ABED26"/>
<path d="M65.7864 79.1324C65.3759 80.5395 66.0879 81.9276 67.6943 82.6948L67.3089 83.6879L68.1395 84.0103L68.5249 83.0172C70.3895 83.5727 71.9098 82.9797 72.5 81.459C73.004 80.1604 72.5415 79.1164 71.1057 78.0724L70.59 77.6965L71.7952 74.5914C72.6538 75.028 73.0653 75.7553 72.9314 76.551L74.1021 77.0054C74.4771 75.6473 73.7467 74.2851 72.1942 73.5632L72.5771 72.5766L71.7465 72.2542L71.3557 73.2612C69.7386 72.8497 68.2849 73.4527 67.7512 74.828C67.2903 76.0154 67.7334 77.1544 68.9457 78.0328L69.3802 78.3536L68.1024 81.6457C67.2413 81.1517 66.811 80.3927 66.9499 79.584L65.7864 79.1324ZM69.7028 77.0477C68.9556 76.5105 68.6901 75.8793 68.9409 75.2333C69.2401 74.4624 70.0217 74.1107 70.9538 74.2968L69.8459 77.1511L69.7028 77.0477ZM70.3765 79.0683C71.2991 79.7299 71.5791 80.3422 71.2907 81.0854C70.9429 81.9814 70.0534 82.323 68.924 81.989L70.1269 78.8897L70.3768 79.0675L70.3765 79.0683Z" fill="#ABED26"/>
<path d="M52.6967 84.4865L51.4846 82.3287L53.4731 81.2118L53.0273 80.4181L51.0388 81.5351L50.4349 80.4599L52.4225 79.3434L51.9767 78.5498L50.2964 79.4936L50.2129 72.9251L48.8317 73.7009L49.0488 79.3306L48.9789 79.3699L44.2842 76.2553L42.8965 77.0348L48.4551 80.5279L46.7601 81.48L47.2064 82.2744L49.2159 81.1457L49.8199 82.2208L47.8119 83.3487L48.2573 84.1416L50.2652 83.0137L51.4773 85.1714L52.6983 84.4856L52.6967 84.4865Z" fill="#ABED26"/>
<path d="M9.80024 107.561L8.58821 105.404L10.5766 104.287L10.1308 103.493L8.1424 104.61L7.53846 103.535L9.52609 102.418L9.08028 101.625L7.39994 102.569L7.31647 96.0001L5.9353 96.7759L6.15234 102.406L6.08243 102.445L1.38774 99.3303L6.10352e-05 100.11L5.55864 103.603L3.86368 104.555L4.30995 105.349L6.31952 104.221L6.92346 105.296L4.91551 106.424L5.36086 107.217L7.36881 106.089L8.58083 108.246L9.80186 107.561L9.80024 107.561Z" fill="#ABED26"/>
<path d="M74.2626 58.1585L74.829 55.7494L77.0491 56.2713L77.2575 55.3852L75.0373 54.8632L75.3196 53.6628L77.5388 54.1845L77.7471 53.2984L75.871 52.8573L80.2517 47.9622L78.7096 47.5996L75.0622 51.8935L74.9841 51.8752L73.6321 46.4059L72.0828 46.0416L73.8152 52.3739L71.9227 51.929L71.7142 52.8161L73.9579 53.3436L73.6756 54.5441L71.4337 54.017L71.2256 54.9022L73.4675 55.4293L72.9011 57.8384L74.2644 58.159L74.2626 58.1585Z" fill="#ABED26"/>
<path d="M110.317 62.3879L109.279 60.1411L111.349 59.1849L110.968 58.3585L108.897 59.3146L108.38 58.1951L110.45 57.2393L110.068 56.4128L108.319 57.2209L108.755 50.6663L107.317 51.3305L107.088 56.9597L107.015 56.9934L102.581 53.5173L101.136 54.1846L106.401 58.1063L104.636 58.9213L105.018 59.7486L107.111 58.7823L107.628 59.9019L105.537 60.8674L105.918 61.693L108.009 60.7275L109.047 62.9743L110.318 62.3871L110.317 62.3879Z" fill="#ABED26"/>
<path d="M88.2424 65.8528L88.9651 65.2463C90.8504 67.0278 93.1106 67.0743 95.166 65.3496C95.5889 64.9948 95.9207 64.6376 96.1884 64.2774L95.4468 63.3935C95.1856 63.7505 94.8333 64.1053 94.4158 64.4556C92.9879 65.6536 91.3832 65.6122 89.9869 64.3901L92.7182 62.0983L92.1888 61.4673L89.4113 63.7979L88.8773 63.1615C88.8145 63.0867 88.7523 63.0126 88.695 62.9332L91.4678 60.6067L90.9389 59.9764L88.243 62.2385C87.424 60.7267 87.7088 59.2283 89.0714 58.0849C89.4889 57.7346 89.8989 57.4486 90.3004 57.2588L89.5593 56.3756C89.1137 56.5937 88.6975 56.8674 88.3206 57.1902C86.3298 58.8607 85.9385 61.0069 87.2083 63.1056L86.4624 63.7314L86.9918 64.3624L87.6785 63.7862L88.4002 64.6463L87.7135 65.2225L88.2424 65.8528Z" fill="#ABED26"/>
<path d="M113.523 76.263L114.451 76.0937C115.208 78.5748 117.149 79.7338 119.788 79.2524C120.331 79.1533 120.796 79.0072 121.207 78.8267L121 77.6916C120.597 77.8726 120.115 78.0064 119.579 78.1042C117.745 78.4386 116.371 77.6084 115.763 75.8554L119.27 75.2157L119.123 74.4054L115.556 75.0559L115.407 74.2387C115.389 74.1426 115.372 74.0475 115.361 73.9501L118.922 73.3007L118.774 72.4913L115.312 73.1227C115.349 71.4037 116.338 70.2426 118.088 69.9235C118.624 69.8257 119.122 69.7801 119.564 69.8139L119.358 68.6797C118.862 68.6486 118.365 68.6805 117.878 68.7745C115.322 69.2407 113.919 70.912 113.984 73.3641L113.026 73.5388L113.174 74.3491L114.056 74.1882L114.257 75.2927L113.375 75.4536L113.523 76.263Z" fill="#ABED26"/>
<path d="M123.746 113.91L124.675 113.741C125.431 116.222 127.372 117.381 130.012 116.899C130.555 116.8 131.02 116.654 131.431 116.474L131.224 115.339C130.82 115.52 130.338 115.653 129.802 115.751C127.969 116.086 126.595 115.255 125.986 113.502L129.494 112.863L129.346 112.052L125.779 112.703L125.63 111.886C125.613 111.79 125.595 111.694 125.585 111.597L129.145 110.948L128.998 110.138L125.536 110.77C125.572 109.051 126.561 107.89 128.311 107.57C128.847 107.473 129.345 107.427 129.788 107.461L129.581 106.327C129.086 106.296 128.589 106.327 128.102 106.421C125.545 106.888 124.143 108.559 124.207 111.011L123.25 111.186L123.397 111.996L124.279 111.835L124.481 112.94L123.599 113.101L123.746 113.91Z" fill="#ABED26"/>
<path d="M81.2458 94.9222L82.174 94.7529C82.9306 97.234 84.8715 98.393 87.5111 97.9116C88.0542 97.8125 88.5192 97.6664 88.9302 97.4859L88.7232 96.3508C88.3195 96.5317 87.8378 96.6656 87.3017 96.7634C85.468 97.0978 84.0941 96.2675 83.4857 94.5146L86.9932 93.8749L86.8454 93.0646L83.2785 93.7151L83.1295 92.8979C83.112 92.8018 83.0946 92.7066 83.0841 92.6093L86.6449 91.9599L86.4973 91.1505L83.0351 91.7819C83.0717 90.0629 84.0608 88.9018 85.8106 88.5827C86.3467 88.4849 86.8446 88.4392 87.2874 88.4731L87.0805 87.3388C86.5854 87.3078 86.0882 87.3397 85.6011 87.4336C83.0444 87.8999 81.6422 89.5712 81.7069 92.0233L80.749 92.198L80.8968 93.0082L81.7787 92.8474L81.9801 93.9519L81.0982 94.1128L81.2458 94.9222Z" fill="#ABED26"/>
<path d="M150.802 92.9165L151.52 92.3046C153.419 94.0718 155.679 94.1012 157.722 92.361C158.142 92.0029 158.471 91.6432 158.736 91.281L157.988 90.4027C157.729 90.7618 157.38 91.1192 156.965 91.4726C155.546 92.6815 153.941 92.6521 152.536 91.4406L155.249 89.1282L154.715 88.5013L151.955 90.8529L151.417 90.2205C151.353 90.1462 151.291 90.0726 151.233 89.9937L153.988 87.6461L153.454 87.0199L150.775 89.3024C149.945 87.7968 150.219 86.2962 151.572 85.1426C151.987 84.7892 152.395 84.5 152.795 84.3072L152.047 83.4296C151.603 83.6511 151.189 83.928 150.815 84.2536C148.837 85.9391 148.462 88.0882 149.747 90.1772L149.006 90.8087L149.54 91.4357L150.223 90.8543L150.951 91.7088L150.269 92.2903L150.802 92.9165Z" fill="#ABED26"/>
<path d="M102.298 116.588C103.255 117.698 104.807 117.856 106.325 116.926L106.949 117.789L107.671 117.268L107.047 116.404C108.528 115.142 108.858 113.544 107.903 112.221C107.087 111.092 105.96 110.912 104.303 111.548L103.707 111.777L101.757 109.076C102.591 108.593 103.425 108.644 104.019 109.189L105.038 108.454C104.102 107.4 102.562 107.272 101.111 108.182L100.492 107.324L99.7696 107.845L100.402 108.721C99.1768 109.854 98.8918 111.402 99.7553 112.598C100.501 113.631 101.698 113.879 103.094 113.339L103.6 113.149L105.667 116.013C104.784 116.466 103.913 116.414 103.31 115.858L102.298 116.588ZM102.68 112.168C101.822 112.503 101.148 112.382 100.743 111.82C100.259 111.15 100.389 110.303 101.052 109.622L102.844 112.104L102.68 112.168ZM104.741 112.702C105.798 112.288 106.465 112.386 106.931 113.033C107.494 113.812 107.297 114.744 106.402 115.51L104.456 112.814L104.741 112.701L104.741 112.702Z" fill="#ABED26"/>
<path d="M142.862 72.392C143.219 73.8136 144.535 74.6512 146.309 74.5009L146.479 75.5526L147.359 75.4108L147.189 74.3591C149.078 73.8956 150.09 72.6152 149.831 71.0048C149.609 69.6297 148.682 68.9628 146.915 68.788L146.28 68.7244L145.75 65.4361C146.712 65.3787 147.434 65.7981 147.721 66.5523L148.961 66.3524C148.598 64.9912 147.279 64.1851 145.575 64.3472L145.406 63.3025L144.527 63.4443L144.699 64.5107C143.095 64.9733 142.146 66.2285 142.381 67.6849C142.584 68.9425 143.542 69.7011 145.032 69.8459L145.569 69.9031L146.131 73.3894C145.138 73.3986 144.383 72.9613 144.094 72.1933L142.862 72.392ZM145.187 68.6132C144.271 68.5276 143.723 68.1173 143.612 67.4331C143.481 66.6167 143.977 65.9181 144.875 65.6074L145.363 68.6301L145.187 68.6132ZM146.79 70.0159C147.92 70.1203 148.471 70.507 148.598 71.294C148.751 72.2428 148.157 72.9874 147.013 73.2702L146.484 69.988L146.79 70.015L146.79 70.0159Z" fill="#ABED26"/>
<path d="M173.18 95.8697C173.537 97.2913 174.853 98.1288 176.627 97.9786L176.796 99.0303L177.676 98.8884L177.506 97.8367C179.396 97.3733 180.408 96.0929 180.148 94.4825C179.926 93.1073 178.999 92.4404 177.233 92.2656L176.598 92.2021L176.068 88.9138C177.029 88.8564 177.752 89.2758 178.039 90.03L179.279 89.8301C178.915 88.4688 177.597 87.6628 175.892 87.8249L175.724 86.7801L174.844 86.922L175.016 87.9884C173.413 88.451 172.463 89.7061 172.698 91.1626C172.901 92.4201 173.859 93.1787 175.349 93.3236L175.886 93.3807L176.448 96.8671C175.456 96.8763 174.701 96.439 174.412 95.671L173.18 95.8697ZM175.504 92.0909C174.588 92.0052 174.04 91.5949 173.93 90.9108C173.798 90.0943 174.295 89.3958 175.193 89.085L175.68 92.1078L175.504 92.0909ZM177.107 93.4936C178.238 93.5979 178.789 93.9847 178.916 94.7717C179.069 95.7205 178.474 96.465 177.331 96.7479L176.802 93.4656L177.107 93.4927L177.107 93.4936Z" fill="#ABED26"/>
<path d="M130.078 93.3944C130.063 94.8602 131.124 96.0043 132.878 96.3092L132.775 97.3695L133.661 97.4556L133.764 96.3953C135.71 96.4265 137.013 95.445 137.171 93.8214C137.305 92.435 136.578 91.5546 134.914 90.9372L134.316 90.7145L134.637 87.3994C135.582 87.5879 136.175 88.177 136.261 88.9793L137.511 89.1006C137.505 87.6918 136.434 86.5774 134.744 86.3016L134.846 85.2483L133.959 85.1622L133.855 86.2373C132.187 86.2778 130.95 87.251 130.808 88.7193C130.685 89.9871 131.419 90.9641 132.823 91.4824L133.328 91.674L132.987 95.1888C132.025 94.9458 131.405 94.3312 131.321 93.515L130.078 93.3944ZM133.286 90.3294C132.422 90.014 131.996 89.478 132.063 88.7883C132.142 87.9652 132.8 87.4156 133.748 87.3429L133.452 90.3904L133.286 90.3294ZM134.481 92.093C135.548 92.4809 135.983 92.9949 135.906 93.7884C135.813 94.7449 135.049 95.3141 133.871 95.2975L134.192 91.9885L134.481 92.0922L134.481 92.093Z" fill="#ABED26"/>
<path d="M72.6201 115.349C72.6049 116.814 73.6654 117.958 75.4193 118.263L75.3163 119.324L76.2032 119.41L76.3061 118.349C78.2513 118.381 79.5551 117.399 79.7126 115.775C79.8472 114.389 79.1199 113.509 77.4555 112.891L76.8575 112.669L77.1792 109.353C78.1239 109.542 78.7164 110.131 78.8025 110.933L80.0524 111.055C80.0467 109.646 78.9755 108.531 77.2858 108.256L77.388 107.202L76.5012 107.116L76.3968 108.191C74.7287 108.232 73.4919 109.205 73.3494 110.673C73.2263 111.941 73.9606 112.918 75.3651 113.437L75.87 113.628L75.5289 117.143C74.5663 116.9 73.9471 116.285 73.8623 115.469L72.6201 115.349ZM75.828 112.284C74.9634 111.968 74.5374 111.432 74.6043 110.742C74.6842 109.919 75.3418 109.37 76.2895 109.297L75.9937 112.345L75.828 112.284ZM77.0223 114.047C78.0893 114.435 78.5243 114.949 78.4473 115.742C78.3545 116.699 77.5903 117.268 76.4126 117.252L76.7338 113.943L77.0224 114.046L77.0223 114.047Z" fill="#ABED26"/>
<path d="M118.761 98.6604L117.012 96.9101L118.625 95.2977L117.981 94.6539L116.368 96.2664L115.496 95.3942L117.109 93.7825L116.465 93.1387L115.102 94.5013L113.248 88.1994L112.127 89.3194L113.857 94.6813L113.8 94.738L108.439 93.007L107.313 94.1323L113.608 95.9944L112.234 97.3689L112.878 98.0133L114.508 96.3837L115.38 97.2558L113.751 98.8841L114.394 99.5272L116.023 97.899L117.772 99.6492L118.763 98.6591L118.761 98.6604Z" fill="#ABED26"/>
<path d="M64.1534 102.231L62.4037 100.481L64.0166 98.8684L63.373 98.2246L61.7601 99.837L60.8883 98.9649L62.5005 97.3531L61.8569 96.7094L60.4939 98.072L58.6396 91.7701L57.5193 92.8901L59.2487 98.252L59.192 98.3087L53.8306 96.5777L52.705 97.703L59.0004 99.5651L57.6255 100.94L58.2698 101.584L59.8998 99.9544L60.7717 100.827L59.143 102.455L59.7859 103.098L61.4146 101.47L63.1643 103.22L64.1548 102.23L64.1534 102.231Z" fill="#ABED26"/>
<path d="M132.416 67.4861L132.31 65.0135L134.589 64.9165L134.55 64.007L132.272 64.1041L132.219 62.872L134.497 62.775L134.458 61.8655L132.532 61.9475L135.428 56.0512L133.846 56.1186L131.493 61.238L131.413 61.2414L128.634 56.3405L127.044 56.4082L130.423 62.0373L128.48 62.1201L128.519 63.0305L130.822 62.9324L130.874 64.1645L128.573 64.2625L128.612 65.171L130.913 65.073L131.018 67.5456L132.417 67.4861L132.416 67.4861Z" fill="#ABED26"/>
<path d="M170.679 64.7486L169.073 62.8654L170.809 61.3856L170.218 60.6929L168.483 62.1728L167.682 61.2344L169.417 59.7552L168.826 59.0626L167.36 60.3131L166.01 53.8843L164.804 54.9122L166.104 60.3941L166.043 60.4461L160.836 58.2966L159.625 59.3293L165.753 61.6834L164.274 62.9449L164.865 63.6382L166.619 62.1427L167.419 63.081L165.667 64.5754L166.257 65.2673L168.009 63.7729L169.615 65.6561L170.68 64.7473L170.679 64.7486Z" fill="#ABED26"/>
<path d="M157.54 109.887L155.934 108.004L157.669 106.524L157.079 105.831L155.343 107.311L154.543 106.373L156.278 104.894L155.687 104.201L154.221 105.452L152.87 99.0229L151.665 100.051L152.965 105.533L152.904 105.585L147.696 103.435L146.485 104.468L152.614 106.822L151.134 108.083L151.726 108.777L153.48 107.281L154.28 108.22L152.527 109.714L153.117 110.406L154.87 108.911L156.476 110.795L157.541 109.886L157.54 109.887Z" fill="#ABED26"/>
<path d="M123.773 16.598L124.656 16.9307C124.027 19.4472 125.094 21.4401 127.605 22.3865C128.121 22.5812 128.595 22.6954 129.04 22.7522L129.447 21.6725C129.008 21.6199 128.526 21.4866 128.016 21.2944C126.272 20.6369 125.522 19.2178 125.903 17.4018L129.239 18.6593L129.53 17.8886L126.137 16.6098L126.43 15.8324C126.464 15.7411 126.498 15.6506 126.539 15.5617L129.926 16.8384L130.217 16.0685L126.924 14.8272C127.84 13.3724 129.286 12.8863 130.95 13.5136C131.46 13.7059 131.91 13.923 132.272 14.18L132.679 13.1012C132.271 12.8196 131.828 12.591 131.362 12.4207C128.93 11.5041 126.868 12.2148 125.661 14.3502L124.749 14.0068L124.459 14.7775L125.298 15.0937L124.902 16.1443L124.063 15.8281L123.773 16.598Z" fill="#ABED26"/>
<path d="M153.901 24.5621L154.504 25.2882C152.712 27.1636 152.653 29.4234 154.366 31.4884C154.718 31.9132 155.074 32.247 155.433 32.5167L156.321 31.78C155.965 31.5168 155.612 31.1625 155.264 30.7431C154.074 29.3087 154.124 27.7041 155.354 26.3147L157.631 29.0586L158.265 28.5327L155.949 25.7423L156.589 25.2119C156.664 25.1495 156.738 25.0877 156.818 25.0309L159.129 27.8164L159.762 27.2911L157.515 24.5827C159.032 23.7721 160.528 24.0652 161.664 25.4341C162.012 25.8535 162.296 26.265 162.484 26.6676L163.371 25.9314C163.155 25.4846 162.884 25.0668 162.563 24.6882C160.904 22.6882 158.76 22.285 156.654 23.5432L156.032 22.7938L155.398 23.3198L155.971 24.0097L155.107 24.7266L154.534 24.0367L153.901 24.5621Z" fill="#ABED26"/>
<path d="M193.834 33.0638L194.436 33.7899C192.644 35.6653 192.585 37.9251 194.298 39.9901C194.651 40.4149 195.006 40.7487 195.365 41.0184L196.253 40.2817C195.897 40.0185 195.545 39.6642 195.197 39.2448C194.006 37.8104 194.057 36.2059 195.287 34.8164L197.563 37.5603L198.197 37.0344L195.882 34.244L196.521 33.7136C196.596 33.6512 196.671 33.5894 196.75 33.5326L199.062 36.3181L199.695 35.7928L197.448 33.0844C198.964 32.2738 200.461 32.5669 201.597 33.9358C201.945 34.3552 202.228 34.7667 202.416 35.1693L203.303 34.4331C203.088 33.9863 202.816 33.5685 202.496 33.1899C200.836 31.1899 198.692 30.7867 196.586 32.0449L195.965 31.2955L195.331 31.8215L195.903 32.5114L195.039 33.2283L194.467 32.5384L193.834 33.0638Z" fill="#ABED26"/>
<path d="M175.404 75.7056L176.29 76.0317C175.68 78.5528 176.762 80.5376 179.28 81.4649C179.798 81.6557 180.273 81.7663 180.718 81.8198L181.117 80.7371C180.677 80.6877 180.195 80.5581 179.683 80.3697C177.934 79.7255 177.173 78.3121 177.54 76.4933L180.886 77.7255L181.171 76.9526L177.768 75.6995L178.055 74.92C178.089 74.8283 178.123 74.7376 178.163 74.6484L181.559 75.8994L181.844 75.1273L178.541 73.911C179.447 72.4493 180.889 71.9523 182.558 72.567C183.069 72.7554 183.521 72.9691 183.885 73.2233L184.284 72.1415C183.873 71.863 183.429 71.6377 182.962 71.471C180.523 70.5728 178.466 71.2991 177.275 73.4436L176.361 73.1071L176.077 73.88L176.918 74.1898L176.53 75.2434L175.689 74.9335L175.404 75.7056Z" fill="#ABED26"/>
<path d="M142.423 8.64422C141.925 10.0227 142.548 11.4529 144.103 12.3199L143.655 13.2867L144.464 13.6608L144.911 12.694C146.737 13.3658 148.292 12.8698 148.977 11.3894C149.561 10.1252 149.166 9.05402 147.799 7.92159L147.308 7.51394L148.706 4.49101C149.535 4.9809 149.9 5.73265 149.717 6.51833L150.856 7.04558C151.316 5.71389 150.673 4.30831 149.169 3.48999L149.613 2.52952L148.805 2.15543L148.351 3.13577C146.763 2.62318 145.275 3.13329 144.655 4.47222C144.12 5.62828 144.491 6.79291 145.645 7.74593L146.059 8.09352L144.576 11.2985C143.748 10.7513 143.366 9.96664 143.556 9.16824L142.423 8.64422ZM146.463 6.81051C145.751 6.2273 145.526 5.58068 145.817 4.95176C146.164 4.2012 146.966 3.89952 147.885 4.14395L146.599 6.92279L146.463 6.81051ZM147.008 8.86956C147.887 9.58799 148.128 10.2168 147.793 10.9403C147.39 11.8126 146.48 12.0975 145.374 11.6929L146.77 8.67557L147.008 8.86877L147.008 8.86956Z" fill="#ABED26"/>
<path d="M113.25 34.5407C112.751 35.9192 113.374 37.3494 114.929 38.2164L114.482 39.1832L115.29 39.5573L115.738 38.5904C117.564 39.2623 119.118 38.7663 119.803 37.2858C120.388 36.0217 119.992 34.9505 118.625 33.8181L118.134 33.4104L119.533 30.3875C120.362 30.8774 120.727 31.6291 120.543 32.4148L121.683 32.9421C122.143 31.6104 121.5 30.2048 119.996 29.3865L120.44 28.426L119.631 28.0519L119.178 29.0323C117.59 28.5197 116.101 29.0298 115.482 30.3687C114.947 31.5248 115.317 32.6894 116.472 33.6424L116.885 33.99L115.403 37.195C114.574 36.6477 114.193 35.8631 114.382 35.0647L113.25 34.5407ZM117.29 32.707C116.578 32.1238 116.353 31.4772 116.643 30.8482C116.991 30.0977 117.793 29.796 118.711 30.0404L117.426 32.8193L117.29 32.707ZM117.835 34.766C118.714 35.4845 118.954 36.1133 118.62 36.8368C118.216 37.709 117.307 37.994 116.201 37.5894L117.597 34.5721L117.835 34.7653L117.835 34.766Z" fill="#ABED26"/>
<path d="M200.235 79.3199C199.736 80.6984 200.36 82.1286 201.914 82.9955L201.467 83.9624L202.276 84.3365L202.723 83.3696C204.549 84.0415 206.104 83.5455 206.789 82.065C207.373 80.8008 206.978 79.7297 205.61 78.5972L205.119 78.1896L206.518 75.1667C207.347 75.6566 207.712 76.4083 207.528 77.194L208.668 77.7212C209.128 76.3896 208.485 74.984 206.981 74.1656L207.425 73.2052L206.617 72.8311L206.163 73.8114C204.575 73.2988 203.086 73.8089 202.467 75.1479C201.932 76.3039 202.303 77.4686 203.457 78.4216L203.871 78.7692L202.388 81.9742C201.56 81.4269 201.178 80.6423 201.368 79.8439L200.235 79.3199ZM204.275 77.4862C203.563 76.903 203.338 76.2563 203.629 75.6274C203.976 74.8769 204.778 74.5752 205.697 74.8196L204.411 77.5984L204.275 77.4862ZM204.82 79.5452C205.699 80.2636 205.94 80.8925 205.605 81.616C205.202 82.4882 204.292 82.7732 203.186 82.3686L204.582 79.3512L204.82 79.5444L204.82 79.5452Z" fill="#ABED26"/>
<path d="M177.427 47.6528C176.363 48.661 176.278 50.2188 177.279 51.6913L176.445 52.3546L177 53.0518L177.833 52.3886C179.163 53.8084 180.775 54.0629 182.052 53.0474C183.142 52.1801 183.269 51.0453 182.555 49.4197L182.3 48.8351L184.906 46.7614C185.427 47.5714 185.416 48.4069 184.899 49.0265L185.681 50.0092C186.69 49.0256 186.746 47.4809 185.769 46.0747L186.597 45.4158L186.042 44.7185L185.197 45.3911C184.008 44.2203 182.449 44.008 181.294 44.9265C180.298 45.7195 180.106 46.9265 180.71 48.2963L180.923 48.7925L178.16 50.9911C177.665 50.1303 177.677 49.2579 178.204 48.6295L177.427 47.6528ZM181.861 47.8274C181.486 46.9867 181.575 46.3079 182.117 45.8764C182.765 45.3615 183.617 45.452 184.328 46.0827L181.932 47.9889L181.861 47.8274ZM181.423 49.912C181.887 50.9486 181.82 51.6186 181.196 52.115C180.444 52.7133 179.503 52.5598 178.696 51.7019L181.298 49.632L181.424 49.9115L181.423 49.912Z" fill="#ABED26"/>
<path d="M149.989 45.5713C148.704 46.2764 148.226 47.7616 148.82 49.4398L147.845 49.8697L148.205 50.685L149.18 50.255C150.106 51.9659 151.6 52.6213 153.093 51.9629C154.367 51.4007 154.778 50.3353 154.501 48.5819L154.402 47.9515L157.449 46.6072C157.748 47.523 157.524 48.3283 156.867 48.7965L157.374 49.9454C158.599 49.25 159.046 47.7701 158.458 46.1621L159.426 45.7349L159.067 44.9197L158.078 45.3557C157.226 43.9215 155.771 43.3203 154.421 43.9158C153.256 44.4299 152.764 45.5487 153.001 47.0269L153.081 47.561L149.85 48.9862C149.59 48.0281 149.823 47.1871 150.493 46.7132L149.989 45.5713ZM154.233 46.8654C154.084 45.9572 154.342 45.3232 154.976 45.0435C155.733 44.7097 156.534 45.0135 157.062 45.804L154.261 47.0398L154.233 46.8654ZM153.281 48.7708C153.466 49.8909 153.231 50.522 152.501 50.8438C151.622 51.2317 150.751 50.8445 150.189 49.8099L153.23 48.4681L153.282 48.7705L153.281 48.7708Z" fill="#ABED26"/>
<path d="M136.946 40.1051L137.614 37.7221L139.81 38.3378L140.055 37.4613L137.859 36.8456L138.192 35.6582L140.387 36.2736L140.633 35.3971L138.777 34.8768L143.362 30.1719L141.836 29.7443L138.01 33.8796L137.933 33.858L136.814 28.3363L135.282 27.9066L136.744 34.3067L134.872 33.7819L134.626 34.6593L136.845 35.2815L136.512 36.469L134.295 35.8473L134.049 36.7229L136.267 37.3446L135.599 39.7275L136.947 40.1056L136.946 40.1051Z" fill="#ABED26"/>
<path d="M170.811 36.7285L172.914 35.4249L174.116 37.3636L174.89 36.8841L173.688 34.9454L174.736 34.2959L175.937 36.2337L176.711 35.7542L175.696 34.116L182.255 33.7504L181.42 32.4039L175.805 32.8625L175.763 32.7944L178.673 27.9702L177.835 26.6173L174.584 32.3208L173.559 30.6683L172.785 31.1483L173.999 33.1075L172.951 33.7571L171.738 31.7994L170.965 32.2784L172.178 34.2361L170.074 35.5397L170.812 36.7301L170.811 36.7285Z" fill="#ABED26"/>
<path d="M191.95 68.7397L192.804 66.417L194.945 67.2044L195.259 66.3501L193.119 65.5627L193.544 64.4053L195.684 65.1924L195.998 64.3381L194.189 63.6727L199.132 59.3451L197.645 58.7981L193.504 62.6179L193.428 62.5902L192.75 56.9974L191.256 56.4479L192.207 62.9436L190.383 62.2724L190.068 63.1276L192.231 63.9234L191.806 65.0807L189.644 64.2856L189.33 65.1391L191.492 65.9342L190.637 68.2569L191.952 68.7404L191.95 68.7397Z" fill="#ABED26"/>
<path d="M21.4427 34.5356L22.3024 34.1469C23.6365 36.3714 25.8001 37.0266 28.2449 35.9211C28.748 35.6936 29.1639 35.4393 29.519 35.1648L29.0436 34.1135C28.6957 34.3867 28.2606 34.6331 27.7641 34.8576C26.0657 35.6256 24.5318 35.1522 23.5175 33.5984L26.7662 32.1295L26.4269 31.379L23.1232 32.8728L22.7809 32.1159C22.7407 32.0269 22.7008 31.9387 22.667 31.8469L25.9651 30.3556L25.6261 29.6059L22.4194 31.0559C22.0392 29.379 22.7181 28.0132 24.3388 27.2804C24.8354 27.0558 25.3074 26.8911 25.7453 26.8168L25.2702 25.7663C24.7823 25.856 24.3076 26.0071 23.8576 26.2161C21.4896 27.2868 20.5332 29.2476 21.189 31.6113L20.3018 32.0124L20.6411 32.7629L21.458 32.3936L21.9206 33.4166L21.1037 33.7859L21.4427 34.5356Z" fill="#ABED26"/>
<path d="M48.3823 18.8704L49.3217 18.9581C49.3801 21.5513 50.9358 23.1914 53.6074 23.4408C54.1571 23.4921 54.6443 23.477 55.0887 23.4142L55.196 22.2653C54.7584 22.3306 54.2585 22.3294 53.7158 22.2787C51.86 22.1055 50.7614 20.935 50.649 19.0829L54.199 19.4142L54.2755 18.5942L50.6654 18.2572L50.7427 17.43C50.7517 17.3328 50.7607 17.2365 50.7769 17.14L54.3807 17.4764L54.4572 16.6572L50.9532 16.3301C51.4526 14.6848 52.7186 13.834 54.4896 13.9993C55.0322 14.05 55.5238 14.1404 55.9411 14.2926L56.0482 13.1447C55.5798 12.9811 55.0926 12.8775 54.5981 12.8364C52.0105 12.5948 50.2091 13.8253 49.6091 16.2037L48.6397 16.1132L48.5631 16.9333L49.4557 17.0166L49.3513 18.1345L48.4588 18.0512L48.3823 18.8704Z" fill="#ABED26"/>
<path d="M89.6022 39.2442L90.4589 38.8489C91.8099 41.0632 93.9784 41.702 96.4147 40.5781C96.916 40.3468 97.33 40.0894 97.683 39.8121L97.1997 38.7644C96.8539 39.0403 96.4207 39.29 95.9258 39.5183C94.2333 40.2991 92.6959 39.8374 91.6698 38.2913L94.9073 36.7978L94.5623 36.0499L91.27 37.5687L90.922 36.8143C90.8811 36.7257 90.8406 36.6378 90.8061 36.5462L94.0928 35.03L93.7482 34.2829L90.5526 35.7571C90.1596 34.0832 90.8282 32.7123 92.4433 31.9672C92.9382 31.7389 93.4089 31.5706 93.8462 31.493L93.3632 30.4461C92.8759 30.5395 92.4024 30.6942 91.954 30.9066C89.5942 31.9952 88.6527 33.9632 89.3263 36.3218L88.4422 36.7297L88.7872 37.4776L89.6013 37.102L90.0716 38.1215L89.2576 38.4971L89.6022 39.2442Z" fill="#ABED26"/>
<path d="M29.0113 15.726C29.6333 17.0533 31.0851 17.6244 32.7977 17.1385L33.1648 18.1385L34.0012 17.8314L33.6341 16.8314C35.4004 16.0159 36.1494 14.566 35.5873 13.0348C35.1073 11.7272 34.0701 11.2494 32.3026 11.4148L31.6672 11.4736L30.5193 8.34686C31.4523 8.10701 32.2417 8.38087 32.6672 9.06644L33.8461 8.63368C33.2299 7.36673 31.7815 6.82713 30.1393 7.31147L29.7746 6.31803L28.9381 6.62509L29.3104 7.63909C27.8249 8.39906 27.1325 9.8123 27.6409 11.1972C28.0798 12.3929 29.1652 12.9548 30.6555 12.8127L31.1935 12.7664L32.4105 16.0814C31.4378 16.2798 30.6132 15.9946 30.1829 15.2959L29.0113 15.726ZM30.5726 11.573C29.6568 11.6638 29.0404 11.3656 28.8016 10.7151C28.5166 9.93877 28.8707 9.15831 29.6932 8.68187L30.7483 11.5561L30.5726 11.573ZM32.4136 12.6442C33.5432 12.5309 34.1581 12.8054 34.4328 13.5537C34.764 14.4559 34.3223 15.3002 33.254 15.796L32.1083 12.6751L32.4133 12.6433L32.4136 12.6442Z" fill="#ABED26"/>
<path d="M26.6837 54.6659C27.3056 55.9933 28.7574 56.5643 30.47 56.0784L30.8371 57.0784L31.6735 56.7714L31.3064 55.7713C33.0728 54.9559 33.8218 53.506 33.2597 51.9747C32.7796 50.6671 31.7425 50.1893 29.975 50.3547L29.3395 50.4135L28.1917 47.2868C29.1247 47.047 29.9141 47.3208 30.3396 48.0064L31.5184 47.5736C30.9023 46.3067 29.4538 45.7671 27.8116 46.2514L27.4469 45.258L26.6105 45.565L26.9828 46.579C25.4972 47.339 24.8048 48.7522 25.3132 50.1371C25.7522 51.3329 26.8375 51.8947 28.3278 51.7527L28.8659 51.7063L30.0829 55.0213C29.1101 55.2198 28.2856 54.9346 27.8553 54.2358L26.6837 54.6659ZM28.2449 50.513C27.3291 50.6037 26.7128 50.3055 26.474 49.655C26.189 48.8787 26.5431 48.0983 27.3656 47.6218L28.4207 50.496L28.2449 50.513ZM30.086 51.5841C31.2156 51.4709 31.8305 51.7453 32.1052 52.4937C32.4364 53.3958 31.9947 54.2402 30.9263 54.736L29.7806 51.615L30.0857 51.5833L30.086 51.5841Z" fill="#ABED26"/>
<path d="M77.6766 23.0671C77.6367 24.5324 78.6777 25.6943 80.4262 26.0287L80.3055 27.0871L81.1907 27.1881L81.3115 26.1297C83.2559 26.1937 84.576 25.2342 84.7609 23.6135C84.9188 22.2296 84.2064 21.3371 82.5527 20.6917L81.9585 20.459L82.3361 17.1497C83.2775 17.3541 83.86 17.9532 83.9325 18.7568L85.1802 18.8991C85.1982 17.4904 84.146 16.3581 82.4611 16.0539L82.5811 15.0025L81.6958 14.9015L81.5734 15.9747C79.9048 15.9871 78.6518 16.9392 78.4845 18.405C78.3401 19.6706 79.0578 20.6597 80.4534 21.2016L80.955 21.4017L80.5547 24.9103C79.5964 24.6511 78.9876 24.0261 78.9166 23.2086L77.6766 23.0671ZM80.9357 20.0566C80.0765 19.7267 79.6596 19.1836 79.7382 18.4951C79.8319 17.6735 80.4986 17.135 81.4474 17.0783L81.1004 20.1204L80.9357 20.0566ZM82.1001 21.8401C83.1604 22.2459 83.5867 22.7671 83.4963 23.5592C83.3874 24.514 82.6137 25.0703 81.4365 25.0338L81.8134 21.7307L82.1002 21.8392L82.1001 21.8401Z" fill="#ABED26"/>
<path d="M60.4671 36.4961C60.0565 37.9033 60.7686 39.2914 62.375 40.0586L61.9895 41.0517L62.8202 41.3741L63.2056 40.381C65.0701 40.9364 66.5905 40.3434 67.1807 38.8227C67.6847 37.5242 67.2221 36.4801 65.7864 35.4361L65.2707 35.0602L66.4758 31.9552C67.3345 32.3918 67.7459 33.1191 67.6121 33.9148L68.7828 34.3691C69.1578 33.0111 68.4274 31.6489 66.8749 30.9269L67.2578 29.9404L66.4272 29.618L66.0364 30.625C64.4193 30.2135 62.9656 30.8164 62.4318 32.1917C61.9709 33.3792 62.4141 34.5182 63.6264 35.3965L64.0608 35.7174L62.7831 39.0095C61.9219 38.5155 61.4917 37.7565 61.6306 36.9477L60.4671 36.4961ZM64.3835 34.4114C63.6362 33.8743 63.3708 33.2431 63.6215 32.5971C63.9207 31.8261 64.7023 31.4745 65.6344 31.6606L64.5266 34.5149L64.3835 34.4114ZM65.0572 36.432C65.9797 37.0936 66.2598 37.706 65.9713 38.4492C65.6236 39.3451 64.7341 39.6868 63.6047 39.3528L64.8076 36.2534L65.0575 36.4312L65.0572 36.432Z" fill="#ABED26"/>
<path d="M47.3772 41.8503L46.1652 39.6925L48.1536 38.5756L47.7078 37.7819L45.7194 38.8988L45.1154 37.8237L47.1031 36.7072L46.6572 35.9135L44.9769 36.8574L44.8934 30.2889L43.5123 31.0647L43.7293 36.6944L43.6594 36.7337L38.9647 33.6191L37.577 34.3986L43.1356 37.8916L41.4406 38.8437L41.8869 39.6382L43.8965 38.5094L44.5004 39.5846L42.4925 40.7125L42.9378 41.5053L44.9458 40.3775L46.1578 42.5352L47.3788 41.8493L47.3772 41.8503Z" fill="#ABED26"/>
<path d="M15.8002 59.5614L14.5882 57.4037L16.5766 56.2868L16.1308 55.4931L14.1424 56.61L13.5385 55.5348L15.5261 54.4184L15.0803 53.6247L13.3999 54.5686L13.3165 48.0001L11.9353 48.7759L12.1523 54.4056L12.0824 54.4448L7.38774 51.3303L6.00006 52.1097L11.5586 55.6028L9.86368 56.5549L10.3099 57.3494L12.3195 56.2206L12.9235 57.2958L10.9155 58.4237L11.3609 59.2165L13.3688 58.0886L14.5808 60.2464L15.8019 59.5605L15.8002 59.5614Z" fill="#ABED26"/>
<path d="M68.9431 15.5224L69.5095 13.1133L71.7297 13.6352L71.938 12.7491L69.7179 12.2271L70.0001 11.0267L72.2193 11.5484L72.4277 10.6623L70.5515 10.2212L74.9322 5.32607L73.3901 4.96351L69.7427 9.25739L69.6647 9.23904L68.3127 3.76978L66.7633 3.40552L68.4957 9.73784L66.6032 9.29291L66.3947 10.18L68.6384 10.7075L68.3562 11.9079L66.1143 11.3809L65.9062 12.2661L68.1481 12.7932L67.5817 15.2023L68.9449 15.5229L68.9431 15.5224Z" fill="#ABED26"/>
<path d="M106.524 23.2202L105.487 20.9734L107.557 20.0172L107.175 19.1907L105.105 20.1469L104.588 19.0273L106.658 18.0716L106.276 17.2451L104.526 18.0531L104.962 11.4986L103.524 12.1628L103.295 17.792L103.223 17.8256L98.789 14.3496L97.344 15.0168L102.609 18.9386L100.844 19.7536L101.226 20.5809L103.319 19.6146L103.836 20.7341L101.745 21.6997L102.126 22.5253L104.217 21.5597L105.254 23.8066L106.526 23.2194L106.524 23.2202Z" fill="#ABED26"/>
</svg>
