<svg width="113" height="77" viewBox="0 0 113 77" fill="none" xmlns="http://www.w3.org/2000/svg">
<path d="M11.2369 14.0258L12.167 13.8455C12.9542 16.3283 14.9159 17.4705 17.561 16.9579C18.1052 16.8524 18.5706 16.7004 18.9812 16.5146L18.7607 15.3772C18.3574 15.5634 17.8752 15.7032 17.338 15.8073C15.5005 16.1634 14.1118 15.345 13.4814 13.5917L16.9962 12.9104L16.8388 12.0984L13.2645 12.7912L13.1058 11.9723C13.0871 11.876 13.0687 11.7807 13.057 11.6831L16.6252 10.9915L16.468 10.1804L12.9987 10.8528C13.0163 9.12634 13.9965 7.94954 15.75 7.60968C16.2872 7.50555 16.7866 7.45415 17.2316 7.48319L17.0113 6.34662C16.5137 6.32098 16.0149 6.35848 15.5268 6.45824C12.9649 6.9548 11.5755 8.64848 11.6677 11.1099L10.7078 11.2959L10.8652 12.1079L11.7489 11.9366L11.9634 13.0434L11.0797 13.2147L11.2369 14.0258Z" fill="#e52a49"/>
<path d="M67.727 41.6116L68.6571 41.4313C69.4443 43.9142 71.406 45.0563 74.0511 44.5437C74.5953 44.4382 75.0607 44.2863 75.4713 44.1005L75.2509 42.963C74.8475 43.1492 74.3653 43.289 73.8281 43.3931C71.9906 43.7493 70.6019 42.9309 69.9715 41.1775L73.4863 40.4962L73.3289 39.6843L69.7546 40.377L69.5959 39.5581C69.5773 39.4618 69.5588 39.3665 69.5471 39.2689L73.1153 38.5773L72.9581 37.7662L69.4888 38.4386C69.5064 36.7122 70.4866 35.5354 72.2401 35.1955C72.7773 35.0914 73.2767 35.04 73.7217 35.069L73.5014 33.9324C73.0039 33.9068 72.5051 33.9443 72.0169 34.0441C69.455 34.5406 68.0656 36.2343 68.1578 38.6957L67.1979 38.8817L67.3553 39.6937L68.239 39.5224L68.4535 40.6292L67.5698 40.8005L67.727 41.6116Z" fill="#e52a49"/>
<path d="M38.6555 65.1848L39.5856 65.0046C40.3728 67.4874 42.3345 68.6296 44.9796 68.1169C45.5238 68.0114 45.9891 67.8595 46.3998 67.6737L46.1793 66.5363C45.776 66.7225 45.2938 66.8622 44.7566 66.9663C42.9191 67.3225 41.5303 66.5041 40.9 64.7507L44.4148 64.0695L44.2574 63.2575L40.6831 63.9503L40.5244 63.1313C40.5057 63.0351 40.4872 62.9397 40.4756 62.8421L44.0437 62.1505L43.8865 61.3394L40.4172 62.0119C40.4349 60.2854 41.4151 59.1086 43.1686 58.7687C43.7058 58.6646 44.2051 58.6132 44.6502 58.6422L44.4299 57.5057C43.9323 57.48 43.4335 57.5175 42.9454 57.6173C40.3835 58.1139 38.9941 59.8075 39.0862 62.2689L38.1264 62.455L38.2838 63.2669L39.1675 63.0957L39.382 64.2025L38.4983 64.3738L38.6555 65.1848Z" fill="#e52a49"/>
<path d="M39.7998 39.6301C39.7294 41.1004 40.7505 42.2884 42.499 42.6603L42.3559 43.7203L43.2425 43.8401L43.3857 42.78C45.3364 42.8845 46.6816 41.9485 46.9008 40.3253C47.0879 38.9392 46.3912 38.0284 44.7443 37.3463L44.1526 37.1004L44.6001 33.7859C45.541 34.0105 46.1134 34.624 46.1696 35.4323L47.4192 35.601C47.4664 34.1871 46.4335 33.0286 44.7483 32.6883L44.8905 31.6352L44.0039 31.5155L43.8587 32.5904C42.1833 32.5683 40.9056 33.4983 40.7074 34.9663C40.5363 36.2339 41.2363 37.2418 42.6261 37.8148L43.1256 38.026L42.6511 41.5401C41.6944 41.26 41.0961 40.62 41.0418 39.7978L39.7998 39.6301ZM43.134 36.6752C42.2783 36.3262 41.871 35.7723 41.9641 35.0828C42.0752 34.2598 42.7557 33.733 43.7095 33.6958L43.2981 36.7426L43.134 36.6752ZM44.2662 38.4898C45.3222 38.9191 45.7394 39.4512 45.6323 40.2446C45.5032 41.2009 44.715 41.7434 43.5339 41.6824L43.9806 38.374L44.2663 38.4889L44.2662 38.4898Z" fill="#e52a49"/>
<path d="M67.2861 13.401C67.2157 14.8712 68.2369 16.0592 69.9853 16.4311L69.8422 17.4912L70.7288 17.6109L70.872 16.5509C72.8228 16.6554 74.1679 15.7194 74.3871 14.0962C74.5743 12.71 73.8775 11.7993 72.2306 11.1171L71.6389 10.8712L72.0864 7.55673C73.0273 7.78142 73.5997 8.39486 73.6559 9.20313L74.9055 9.37187C74.9528 7.95797 73.9199 6.79945 72.2346 6.45917L72.3768 5.40606L71.4902 5.28634L71.345 6.36124C69.6696 6.33918 68.392 7.26915 68.1937 8.73722C68.0226 10.0048 68.7226 11.0127 70.1125 11.5856L70.612 11.7969L70.1375 15.311C69.1807 15.0309 68.5824 14.3909 68.5281 13.5687L67.2861 13.401ZM70.6204 10.4461C69.7647 10.0971 69.3573 9.54322 69.4504 8.85365C69.5616 8.03069 70.2421 7.50387 71.1958 7.46665L70.7844 10.5135L70.6204 10.4461ZM71.7525 12.2607C72.8086 12.69 73.2258 13.2221 73.1186 14.0154C72.9895 14.9718 72.2013 15.5142 71.0202 15.4533L71.4669 12.1449L71.7526 12.2598L71.7525 12.2607Z" fill="#e52a49"/>
<path d="M15.6635 42.8838L14.9192 40.5128L17.1042 39.8269L16.8305 38.9548L14.6455 39.6406L14.2746 38.4592L16.4587 37.7736L16.1849 36.9014L14.3385 37.4811L15.6161 31.0096L14.0984 31.4861L13.1464 37.0627L13.0695 37.0868L9.10128 33.0547L7.57642 33.5333L12.3152 38.1162L10.4526 38.7008L10.7267 39.5739L12.9349 38.8807L13.3058 40.0622L11.0993 40.7548L11.3728 41.626L13.5793 40.9334L14.3236 43.3045L15.6653 42.8833L15.6635 42.8838Z" fill="#e52a49"/>
<path d="M74.5557 69.2099L73.8114 66.8388L75.9964 66.1529L75.7227 65.2808L73.5377 65.9667L73.1668 64.7852L75.3509 64.0996L75.0772 63.2275L73.2307 63.8071L74.5083 57.3357L72.9906 57.8121L72.0386 63.3887L71.9617 63.4128L67.9935 59.3807L66.4686 59.8594L71.2074 64.4422L69.3449 65.0269L69.6189 65.8999L71.8271 65.2067L72.198 66.3882L69.9916 67.0808L70.265 67.952L72.4715 67.2594L73.2158 69.6305L74.5575 69.2093L74.5557 69.2099Z" fill="#e52a49"/>
<path d="M40.9761 10.3279L42.5177 11.3013C42.3778 11.7222 42.1991 12.1284 41.9563 12.5129C41.2717 13.5972 40.1462 14.1032 38.9619 13.6565L38.3617 14.607L44.5625 18.5223L45.1755 17.5515L40.8632 14.8286L40.9269 14.7276C41.8324 14.7244 42.5304 14.1566 43.1474 13.1795C43.3772 12.8154 43.5439 12.4301 43.6842 12.0379L46.26 13.6644L46.7406 12.9034L43.9776 11.1588C44.1894 10.5008 44.4057 9.8357 44.7972 9.21563C45.427 8.21818 46.6383 8.1157 47.8385 8.87356C48.4015 9.23998 48.8835 9.71767 49.2551 10.2773L49.9022 9.25241C49.5084 8.67952 49.0039 8.1912 48.4185 7.81621C46.4745 6.58871 44.6283 6.83666 43.6025 8.46123C43.2193 9.068 43.0062 9.74376 42.804 10.4177L41.4566 9.56692L40.9761 10.3279Z" fill="#e52a49"/>
<path d="M96.2901 64.5601C96.2196 66.0303 97.2408 67.2183 98.9892 67.5902L98.8461 68.6503L99.7328 68.77L99.8759 67.7099C101.827 67.8144 103.172 66.8785 103.391 65.2552C103.578 63.8691 102.881 62.9584 101.235 62.2762L100.643 62.0303L101.09 58.7158C102.031 58.9405 102.604 59.5539 102.66 60.3622L103.909 60.5309C103.957 59.117 102.924 57.9585 101.239 57.6182L101.381 56.5651L100.494 56.4454L100.349 57.5203C98.6735 57.4982 97.3959 58.4282 97.1976 59.8963C97.0265 61.1638 97.7266 62.1718 99.1164 62.7447L99.6159 62.9559L99.1414 66.4701C98.1846 66.19 97.5863 65.55 97.532 64.7278L96.2901 64.5601ZM99.6243 61.6052C98.7686 61.2562 98.3612 60.7023 98.4543 60.0127C98.5655 59.1897 99.246 58.6629 100.2 58.6257L99.7883 61.6726L99.6243 61.6052ZM100.756 63.4197C101.812 63.8491 102.23 64.3812 102.123 65.1745C101.993 66.1308 101.205 66.6733 100.024 66.6123L100.471 63.304L100.757 63.4189L100.756 63.4197Z" fill="#e52a49"/>
<path d="M101.158 18.0508L100.413 15.6798L102.598 14.9939L102.324 14.1218L100.139 14.8076L99.7686 13.6262L101.953 12.9406L101.679 12.0684L99.8325 12.648L101.11 6.17663L99.5924 6.65305L98.6404 12.2297L98.5635 12.2538L94.5953 8.22166L93.0704 8.70032L97.8092 13.2832L95.9467 13.8678L96.2207 14.7409L98.4289 14.0477L98.7998 15.2292L96.5934 15.9218L96.8668 16.793L99.0733 16.1004L99.8176 18.4714L101.159 18.0503L101.158 18.0508Z" fill="#e52a49"/>
<path d="M97.4663 36.2588L99.0079 37.2322C98.868 37.6531 98.6893 38.0593 98.4466 38.4438C97.7619 39.5281 96.6364 40.0341 95.4521 39.5874L94.852 40.5379L101.053 44.4533L101.666 43.4824L97.3534 40.7595L97.4172 40.6585C98.3226 40.6553 99.0206 40.0875 99.6376 39.1104C99.8675 38.7463 100.034 38.361 100.174 37.9688L102.75 39.5953L103.231 38.8343L100.468 37.0897C100.68 36.4317 100.896 35.7666 101.287 35.1465C101.917 34.1491 103.129 34.0466 104.329 34.8045C104.892 35.1709 105.374 35.6486 105.745 36.2082L106.392 35.1833C105.999 34.6104 105.494 34.1221 104.909 33.7471C102.965 32.5196 101.118 32.7676 100.093 34.3921C99.7096 34.9989 99.4964 35.6747 99.2942 36.3486L97.9468 35.4978L97.4663 36.2588Z" fill="#e52a49"/>
<path d="M11.2406 59.7693L12.7822 60.7427C12.6423 61.1636 12.4636 61.5698 12.2209 61.9543C11.5362 63.0386 10.4107 63.5446 9.22642 63.0979L8.62627 64.0484L14.827 67.9638L15.44 66.9929L11.1277 64.27L11.1915 64.169C12.0969 64.1658 12.7949 63.598 13.4119 62.6209C13.6418 62.2568 13.8084 61.8715 13.9487 61.4793L16.5246 63.1058L17.0051 62.3448L14.2421 60.6002C14.4539 59.9422 14.6702 59.2771 15.0617 58.657C15.6915 57.6596 16.9028 57.5571 18.103 58.315C18.666 58.6814 19.1481 59.1591 19.5196 59.7187L20.1667 58.6938C19.7729 58.1209 19.2684 57.6326 18.6831 57.2576C16.739 56.0301 14.8928 56.2781 13.867 57.9026C13.4838 58.5094 13.2707 59.1852 13.0685 59.8591L11.7211 59.0083L11.2406 59.7693Z" fill="#e52a49"/>
</svg>
