<svg width="314" height="163" viewBox="0 0 314 163" fill="none" xmlns="http://www.w3.org/2000/svg">
<path d="M85.756 66.0211L56.752 49.5144V16.5068L85.756 0L114.76 16.5068V49.5144L85.756 66.0211ZM58.0357 48.7872L85.756 64.5608L113.476 48.7872V17.2399L85.756 1.46622L58.0357 17.2399V48.7872Z" fill="#ED2647"/>
<path d="M85.756 57.3303L64.3884 45.169V20.8522L85.756 8.69092L107.124 20.8522V45.1749L85.756 57.3362V57.3303ZM65.6722 44.4359L85.756 55.8641L105.84 44.4359V21.5853L85.756 10.1571L65.6722 21.5853V44.4418V44.4359Z" fill="#ED2647"/>
<path d="M85.756 48.6395L72.0249 40.8236V25.1919L85.756 17.376L99.4872 25.1919V40.8236L85.756 48.6395ZM73.3086 40.0905L85.756 47.1733L98.2035 40.0905V25.925L85.756 18.8422L73.3086 25.925V40.0905Z" fill="#ED2647"/>
<path d="M85.756 39.9484L79.6613 36.478V29.5371L85.756 26.0667L91.8508 29.5371V36.478L85.756 39.9484ZM80.945 35.7449L85.756 38.4822L90.5671 35.7449V30.2702L85.756 27.5329L80.945 30.2702V35.7449Z" fill="#ED2647"/>
<path d="M57.7124 16.3198L57.0705 17.4155L79.9809 30.4518L80.6227 29.3562L57.7124 16.3198Z" fill="#ED2647"/>
<path d="M79.9854 35.585L57.0751 48.6213L57.717 49.717L80.6273 36.6807L79.9854 35.585Z" fill="#ED2647"/>
<path d="M86.3919 39.2153H85.1082V65.288H86.3919V39.2153Z" fill="#ED2647"/>
<path d="M91.5299 35.5681L90.8881 36.6638L113.798 49.7001L114.44 48.6044L91.5299 35.5681Z" fill="#ED2647"/>
<path d="M113.802 16.3384L90.8919 29.3748L91.5337 30.4705L114.444 17.4341L113.802 16.3384Z" fill="#ED2647"/>
<path d="M86.3919 0.733154H85.1082V26.8058H86.3919V0.733154Z" fill="#ED2647"/>
<path d="M171.012 114.021L142.008 97.5144V64.5068L171.012 48L200.016 64.5068V97.5144L171.012 114.021ZM143.292 96.7872L171.012 112.561L198.732 96.7872V65.2399L171.012 49.4662L143.292 65.2399V96.7872Z" fill="#ED2647"/>
<path d="M171.012 105.33L149.645 93.169V68.8522L171.012 56.6909L192.38 68.8522V93.1749L171.012 105.336V105.33ZM150.928 92.4359L171.012 103.864L191.096 92.4359V69.5853L171.012 58.1571L150.928 69.5853V92.4418V92.4359Z" fill="#ED2647"/>
<path d="M171.012 96.6395L157.281 88.8236V73.1919L171.012 65.376L184.743 73.1919V88.8236L171.012 96.6395ZM158.565 88.0905L171.012 95.1733L183.46 88.0905V73.925L171.012 66.8422L158.565 73.925V88.0905Z" fill="#ED2647"/>
<path d="M171.012 87.9487L164.917 84.4782V77.5373L171.012 74.0669L177.107 77.5373V84.4782L171.012 87.9487ZM166.201 83.7451L171.012 86.4824L175.823 83.7451V78.2704L171.012 75.5331L166.201 78.2704V83.7451Z" fill="#ED2647"/>
<path d="M142.968 64.3198L142.327 65.4155L165.237 78.4518L165.879 77.3562L142.968 64.3198Z" fill="#ED2647"/>
<path d="M165.241 83.5848L142.331 96.6211L142.973 97.7168L165.883 84.6805L165.241 83.5848Z" fill="#ED2647"/>
<path d="M171.648 87.2153H170.364V113.288H171.648V87.2153Z" fill="#ED2647"/>
<path d="M176.786 83.5684L176.144 84.6641L199.054 97.7004L199.696 96.6047L176.786 83.5684Z" fill="#ED2647"/>
<path d="M199.058 64.3382L176.148 77.3745L176.79 78.4702L199.7 65.4339L199.058 64.3382Z" fill="#ED2647"/>
<path d="M171.648 48.7332H170.364V74.8058H171.648V48.7332Z" fill="#ED2647"/>
<path d="M143.004 162.021L114 145.514V112.507L143.004 96L172.008 112.507V145.514L143.004 162.021ZM115.284 144.787L143.004 160.561L170.724 144.787V113.24L143.004 97.4662L115.284 113.24V144.787Z" fill="#ED2647"/>
<path d="M143.004 153.33L121.636 141.169V116.852L143.004 104.691L164.372 116.852V141.175L143.004 153.336V153.33ZM122.92 140.436L143.004 151.864L163.088 140.436V117.585L143.004 106.157L122.92 117.585V140.442V140.436Z" fill="#ED2647"/>
<path d="M143.004 144.639L129.273 136.824V121.192L143.004 113.376L156.735 121.192V136.824L143.004 144.639ZM130.557 136.091L143.004 143.173L155.451 136.091V121.925L143.004 114.842L130.557 121.925V136.091Z" fill="#ED2647"/>
<path d="M143.004 135.948L136.909 132.478V125.537L143.004 122.067L149.099 125.537V132.478L143.004 135.948ZM138.193 131.745L143.004 134.482L147.815 131.745V126.27L143.004 123.533L138.193 126.27V131.745Z" fill="#ED2647"/>
<path d="M114.96 112.32L114.319 113.416L137.229 126.452L137.871 125.356L114.96 112.32Z" fill="#ED2647"/>
<path d="M137.233 131.585L114.323 144.621L114.965 145.717L137.875 132.681L137.233 131.585Z" fill="#ED2647"/>
<path d="M143.64 135.215H142.356V161.288H143.64V135.215Z" fill="#ED2647"/>
<path d="M148.778 131.568L148.136 132.664L171.046 145.7L171.688 144.604L148.778 131.568Z" fill="#ED2647"/>
<path d="M171.05 112.338L148.14 125.375L148.782 126.47L171.692 113.434L171.05 112.338Z" fill="#ED2647"/>
<path d="M143.64 96.7332H142.356V122.806H143.64V96.7332Z" fill="#ED2647"/>
<path d="M228.02 114.021L199.016 97.5144V64.5068L228.02 48L257.024 64.5068V97.5144L228.02 114.021ZM200.3 96.7872L228.02 112.561L255.74 96.7872V65.2399L228.02 49.4662L200.3 65.2399V96.7872Z" fill="#ED2647"/>
<path d="M228.02 105.33L206.653 93.169V68.8522L228.02 56.6909L249.388 68.8522V93.1749L228.02 105.336V105.33ZM207.936 92.4359L228.02 103.864L248.104 92.4359V69.5853L228.02 58.1571L207.936 69.5853V92.4418V92.4359Z" fill="#ED2647"/>
<path d="M228.02 96.6395L214.289 88.8236V73.1919L228.02 65.376L241.751 73.1919V88.8236L228.02 96.6395ZM215.573 88.0905L228.02 95.1733L240.468 88.0905V73.925L228.02 66.8422L215.573 73.925V88.0905Z" fill="#ED2647"/>
<path d="M228.02 87.9487L221.925 84.4782V77.5373L228.02 74.0669L234.115 77.5373V84.4782L228.02 87.9487ZM223.209 83.7451L228.02 86.4824L232.831 83.7451V78.2704L228.02 75.5331L223.209 78.2704V83.7451Z" fill="#ED2647"/>
<path d="M199.977 64.3198L199.335 65.4155L222.245 78.4518L222.887 77.3562L199.977 64.3198Z" fill="#ED2647"/>
<path d="M222.25 83.5848L199.339 96.6211L199.981 97.7168L222.891 84.6805L222.25 83.5848Z" fill="#ED2647"/>
<path d="M228.656 87.2153H227.372V113.288H228.656V87.2153Z" fill="#ED2647"/>
<path d="M233.794 83.5684L233.152 84.6641L256.063 97.7004L256.704 96.6047L233.794 83.5684Z" fill="#ED2647"/>
<path d="M256.066 64.3382L233.156 77.3745L233.798 78.4702L256.708 65.4339L256.066 64.3382Z" fill="#ED2647"/>
<path d="M228.656 48.7332H227.372V74.8058H228.656V48.7332Z" fill="#ED2647"/>
<path d="M200.004 66.0211L171 49.5144V16.5068L200.004 0L229.008 16.5068V49.5144L200.004 66.0211ZM172.284 48.7872L200.004 64.5608L227.724 48.7872V17.2399L200.004 1.46622L172.284 17.2399V48.7872Z" fill="#ED2647"/>
<path d="M200.004 57.3303L178.636 45.169V20.8522L200.004 8.69092L221.372 20.8522V45.1749L200.004 57.3362V57.3303ZM179.92 44.4359L200.004 55.8641L220.088 44.4359V21.5853L200.004 10.1571L179.92 21.5853V44.4418V44.4359Z" fill="#ED2647"/>
<path d="M200.004 48.6395L186.273 40.8236V25.1919L200.004 17.376L213.735 25.1919V40.8236L200.004 48.6395ZM187.557 40.0905L200.004 47.1733L212.451 40.0905V25.925L200.004 18.8422L187.557 25.925V40.0905Z" fill="#ED2647"/>
<path d="M200.004 39.9484L193.909 36.478V29.5371L200.004 26.0667L206.099 29.5371V36.478L200.004 39.9484ZM195.193 35.7449L200.004 38.4822L204.815 35.7449V30.2702L200.004 27.5329L195.193 30.2702V35.7449Z" fill="#ED2647"/>
<path d="M171.96 16.3198L171.319 17.4155L194.229 30.4518L194.871 29.3562L171.96 16.3198Z" fill="#ED2647"/>
<path d="M194.233 35.585L171.323 48.6213L171.965 49.717L194.875 36.6807L194.233 35.585Z" fill="#ED2647"/>
<path d="M200.64 39.2153H199.356V65.288H200.64V39.2153Z" fill="#ED2647"/>
<path d="M205.778 35.5681L205.136 36.6638L228.046 49.7001L228.688 48.6044L205.778 35.5681Z" fill="#ED2647"/>
<path d="M228.05 16.3384L205.14 29.3748L205.782 30.4705L228.692 17.4341L228.05 16.3384Z" fill="#ED2647"/>
<path d="M200.64 0.733154H199.356V26.8058H200.64V0.733154Z" fill="#ED2647"/>
<path d="M285.028 114.021L256.024 97.5144V64.5068L285.028 48L314.032 64.5068V97.5144L285.028 114.021ZM257.308 96.7872L285.028 112.561L312.749 96.7872V65.2399L285.028 49.4662L257.308 65.2399V96.7872Z" fill="#ED2647"/>
<path d="M285.028 105.33L263.661 93.169V68.8522L285.028 56.6909L306.396 68.8522V93.1749L285.028 105.336V105.33ZM264.944 92.4359L285.028 103.864L305.112 92.4359V69.5853L285.028 58.1571L264.944 69.5853V92.4418V92.4359Z" fill="#ED2647"/>
<path d="M285.028 96.6395L271.297 88.8236V73.1919L285.028 65.376L298.759 73.1919V88.8236L285.028 96.6395ZM272.581 88.0905L285.028 95.1733L297.476 88.0905V73.925L285.028 66.8422L272.581 73.925V88.0905Z" fill="#ED2647"/>
<path d="M285.028 87.9487L278.934 84.4782V77.5373L285.028 74.0669L291.123 77.5373V84.4782L285.028 87.9487ZM280.217 83.7451L285.028 86.4824L289.839 83.7451V78.2704L285.028 75.5331L280.217 78.2704V83.7451Z" fill="#ED2647"/>
<path d="M256.985 64.3198L256.343 65.4155L279.253 78.4518L279.895 77.3562L256.985 64.3198Z" fill="#ED2647"/>
<path d="M279.258 83.5848L256.347 96.6211L256.989 97.7168L279.899 84.6805L279.258 83.5848Z" fill="#ED2647"/>
<path d="M285.664 87.2153H284.38V113.288H285.664V87.2153Z" fill="#ED2647"/>
<path d="M290.802 83.5684L290.16 84.6641L313.071 97.7004L313.712 96.6047L290.802 83.5684Z" fill="#ED2647"/>
<path d="M313.074 64.3382L290.164 77.3745L290.806 78.4702L313.716 65.4339L313.074 64.3382Z" fill="#ED2647"/>
<path d="M285.664 48.7332H284.38V74.8058H285.664V48.7332Z" fill="#ED2647"/>
<path d="M29.004 66.0211L0 49.5144V16.5068L29.004 0L58.0081 16.5068V49.5144L29.004 66.0211ZM1.28373 48.7872L29.004 64.5608L56.7243 48.7872V17.2399L29.004 1.46622L1.28373 17.2399V48.7872Z" fill="#ED2647"/>
<path d="M29.004 57.3303L7.63643 45.169V20.8522L29.004 8.69092L50.3717 20.8522V45.1749L29.004 57.3362V57.3303ZM8.92017 44.4359L29.004 55.8641L49.0879 44.4359V21.5853L29.004 10.1571L8.92017 21.5853V44.4418V44.4359Z" fill="#ED2647"/>
<path d="M29.004 48.6395L15.2729 40.8236V25.1919L29.004 17.376L42.7352 25.1919V40.8236L29.004 48.6395ZM16.5566 40.0905L29.004 47.1733L41.4515 40.0905V25.925L29.004 18.8422L16.5566 25.925V40.0905Z" fill="#ED2647"/>
<path d="M29.004 39.9484L22.9093 36.478V29.5371L29.004 26.0667L35.0988 29.5371V36.478L29.004 39.9484ZM24.193 35.7449L29.004 38.4822L33.8151 35.7449V30.2702L29.004 27.5329L24.193 30.2702V35.7449Z" fill="#ED2647"/>
<path d="M0.960391 16.3198L0.318527 17.4155L23.2289 30.4518L23.8707 29.3562L0.960391 16.3198Z" fill="#ED2647"/>
<path d="M23.2334 35.585L0.323105 48.6213L0.964973 49.717L23.8753 36.6807L23.2334 35.585Z" fill="#ED2647"/>
<path d="M29.6399 39.2153H28.3562V65.288H29.6399V39.2153Z" fill="#ED2647"/>
<path d="M34.7779 35.5681L34.136 36.6638L57.0464 49.7001L57.6882 48.6044L34.7779 35.5681Z" fill="#ED2647"/>
<path d="M57.0502 16.3384L34.1399 29.3748L34.7817 30.4705L57.6921 17.4341L57.0502 16.3384Z" fill="#ED2647"/>
<path d="M29.6399 0.733154H28.3562V26.8058H29.6399V0.733154Z" fill="#ED2647"/>
<path d="M114.004 114.021L85 97.5144V64.5068L114.004 48L143.008 64.5068V97.5144L114.004 114.021ZM86.2837 96.7872L114.004 112.561L141.724 96.7872V65.2399L114.004 49.4662L86.2837 65.2399V96.7872Z" fill="#ED2647"/>
<path d="M114.004 105.33L92.6364 93.169V68.8522L114.004 56.6909L135.372 68.8522V93.1749L114.004 105.336V105.33ZM93.9202 92.4359L114.004 103.864L134.088 92.4359V69.5853L114.004 58.1571L93.9202 69.5853V92.4418V92.4359Z" fill="#ED2647"/>
<path d="M114.004 96.6395L100.273 88.8236V73.1919L114.004 65.376L127.735 73.1919V88.8236L114.004 96.6395ZM101.557 88.0905L114.004 95.1733L126.451 88.0905V73.925L114.004 66.8422L101.557 73.925V88.0905Z" fill="#ED2647"/>
<path d="M114.004 87.9487L107.909 84.4782V77.5373L114.004 74.0669L120.099 77.5373V84.4782L114.004 87.9487ZM109.193 83.7451L114.004 86.4824L118.815 83.7451V78.2704L114.004 75.5331L109.193 78.2704V83.7451Z" fill="#ED2647"/>
<path d="M85.9604 64.3198L85.3185 65.4155L108.229 78.4518L108.871 77.3562L85.9604 64.3198Z" fill="#ED2647"/>
<path d="M108.233 83.5848L85.3231 96.6211L85.965 97.7168L108.875 84.6805L108.233 83.5848Z" fill="#ED2647"/>
<path d="M114.64 87.2153H113.356V113.288H114.64V87.2153Z" fill="#ED2647"/>
<path d="M119.778 83.5684L119.136 84.6641L142.046 97.7004L142.688 96.6047L119.778 83.5684Z" fill="#ED2647"/>
<path d="M142.05 64.3382L119.14 77.3745L119.782 78.4702L142.692 65.4339L142.05 64.3382Z" fill="#ED2647"/>
<path d="M114.64 48.7332H113.356V74.8058H114.64V48.7332Z" fill="#ED2647"/>
</svg>
