<?xml version="1.0" encoding="UTF-8"?><svg id="b" xmlns="http://www.w3.org/2000/svg" viewBox="0 0 96.71 111.67"><g id="c"><g><path d="M48.35,111.67L0,83.75V27.92L48.35,0l48.35,27.92v55.83l-48.35,27.92ZM2.14,82.51l46.21,26.68,46.21-26.68V29.15L48.35,2.48,2.14,29.15v53.36Z" style="fill:#fff;"/><path d="M48.35,96.97L12.73,76.4V35.27L48.35,14.7l35.62,20.57v41.14l-35.62,20.57ZM14.87,75.16l33.48,19.33,33.48-19.33V36.5L48.35,17.17,14.87,36.5v38.66Z" style="fill:#fff;"/><path d="M48.35,82.27l-22.89-13.22v-26.44l22.89-13.22,22.89,13.22v26.44l-22.89,13.22Zm-20.75-14.46l20.75,11.98,20.75-11.98v-23.96l-20.75-11.98-20.75,11.98v23.96Z" style="fill:#fff;"/><path d="M48.35,67.57l-10.16-5.87v-11.74l10.16-5.87,10.16,5.87v11.74l-10.16,5.87Zm-8.02-7.11l8.02,4.63,8.02-4.63v-9.26l-8.02-4.63-8.02,4.63v9.26Z" style="fill:#fff;"/><rect x="19.09" y="17.51" width="2.14" height="44.1" transform="translate(-24.18 37.24) rotate(-60)" style="fill:#fff;"/><rect x="-1.88" y="71.04" width="44.1" height="2.14" transform="translate(-33.36 19.75) rotate(-30)" style="fill:#fff;"/><rect x="47.28" y="66.33" width="2.14" height="44.1" style="fill:#fff;"/><rect x="75.47" y="50.06" width="2.14" height="44.1" transform="translate(-24.18 102.34) rotate(-60)" style="fill:#fff;"/><rect x="54.49" y="38.49" width="44.1" height="2.14" transform="translate(-9.53 43.58) rotate(-30)" style="fill:#fff;"/><rect x="47.28" y="1.24" width="2.14" height="44.1" style="fill:#fff;"/></g></g></svg>