<?xml version="1.0" encoding="UTF-8"?><svg id="b" xmlns="http://www.w3.org/2000/svg" viewBox="0 0 498.89 99.05"><g id="c"><path d="m24.17,75.75c-4.23,0-7.97-.94-11.21-2.82-3.25-1.88-5.77-4.55-7.56-8-1.8-3.45-2.69-7.52-2.69-12.21,0-4.06.9-7.85,2.69-11.39s4.33-6.39,7.61-8.56c3.27-2.17,7.08-3.26,11.43-3.26,2.43,0,4.81.33,7.13,1,2.32.67,4.42,1.81,6.3,3.43,1.88,1.62,3.39,3.82,4.52,6.61,1.13,2.78,1.67,6.26,1.61,10.43l-28.51.52c0,3.13.39,5.94,1.17,8.43.78,2.49,2.07,4.46,3.87,5.91,1.8,1.45,4.2,2.17,7.21,2.17,1.16,0,2.48-.2,3.96-.61,1.48-.41,2.98-1.09,4.52-2.04,1.53-.96,2.97-2.25,4.3-3.87l3.91,3.65c-2.09,2.96-4.32,5.2-6.69,6.74-2.38,1.54-4.74,2.56-7.08,3.09-2.35.52-4.51.78-6.48.78Zm-8.17-30.34h15.99c-.06-2.43-.39-4.36-1-5.78-.61-1.42-1.43-2.45-2.48-3.09-1.04-.64-2.26-.96-3.65-.96-2.55,0-4.55.91-6,2.74-1.45,1.83-2.41,4.19-2.87,7.08Z"/><path d="m67.54,75.75c-1.74,0-3.42-.2-5.04-.61-1.62-.41-3.07-1.17-4.35-2.3-1.28-1.13-2.29-2.79-3.04-5-.75-2.2-1.13-5.13-1.13-8.78l.17-20.95h-5.91v-7.21c1.8-.06,3.53-.67,5.22-1.83,1.68-1.16,3.11-2.67,4.3-4.52,1.19-1.85,1.98-3.79,2.39-5.82h6.43l-.09,12.17h11.04v6.69l-11.04.26-.09,21.38c0,1.33.13,2.65.39,3.96s.77,2.38,1.52,3.22c.75.84,1.85,1.26,3.3,1.26.81,0,1.93-.29,3.35-.87,1.42-.58,2.94-2.03,4.56-4.35l4.17,3.91c-1.56,2.32-3.19,4.12-4.87,5.39-1.68,1.28-3.29,2.2-4.83,2.78-1.54.58-2.88.93-4.04,1.04-1.16.12-1.97.17-2.43.17Z"/><path d="m102.4,74.62l-13.73-30.16c-.64-1.45-1.09-2.55-1.35-3.3-.26-.75-.43-1.4-.52-1.96-.09-.55-.22-1.17-.39-1.87l-3.22.17v-6.61h20.34v5.56c-1.22.06-2.03.41-2.43,1.04-.41.64-.55,1.46-.44,2.48.12,1.01.38,2.1.78,3.26l4.52,11.13c.46,1.1.93,2.23,1.39,3.39.46,1.16.93,2.32,1.39,3.48h.09c.46-1.22.91-2.43,1.35-3.65.43-1.22.85-2.43,1.26-3.65l3.74-10.6c.52-1.45,1-2.61,1.43-3.48s.91-1.77,1.43-2.69l-5.39.35v-6.61h16.52v5.56c-1.33.23-2.52.97-3.56,2.22-1.04,1.25-1.94,2.64-2.69,4.17-.75,1.54-1.36,2.88-1.83,4.04l-11.13,27.73h-7.56Z"/><path d="m153.25,75.75c-4.17,0-7.94-.9-11.3-2.69-3.36-1.8-6.01-4.36-7.95-7.69-1.94-3.33-2.91-7.26-2.91-11.78,0-4.81,1-9.03,3-12.65,2-3.62,4.66-6.43,8-8.43,3.33-2,6.97-3,10.91-3,4.17,0,7.91.9,11.21,2.7s5.91,4.36,7.82,7.69c1.91,3.33,2.87,7.32,2.87,11.95,0,4.87-.93,9.1-2.78,12.69-1.86,3.59-4.4,6.36-7.65,8.3-3.25,1.94-6.98,2.91-11.21,2.91Zm.35-6.17c2.32-.06,4.07-.87,5.26-2.43,1.19-1.56,2.01-3.53,2.48-5.91.46-2.38.7-4.78.7-7.21,0-2.14-.16-4.32-.48-6.52-.32-2.2-.83-4.2-1.52-6-.7-1.8-1.64-3.25-2.83-4.35-1.19-1.1-2.65-1.62-4.39-1.56-2.26.06-4.04.87-5.35,2.43-1.3,1.57-2.23,3.52-2.78,5.87-.55,2.35-.83,4.79-.83,7.34,0,2.96.32,5.85.96,8.69.64,2.84,1.67,5.17,3.09,7,1.42,1.82,3.32,2.71,5.69,2.65Z"/><path d="m230.31,74.36h-2.29v-30.83c-.03-4.61-1.04-8.04-3.03-10.28s-5.17-3.37-9.53-3.37c-5.04,0-9.15,2.22-12.35,6.66-1.9,2.66-3.16,5.6-3.78,8.82v29h-2.33V28.44h2.33v10.87c1.56-3.74,3.78-6.62,6.66-8.66,2.89-2.04,6.08-3.06,9.59-3.06,3.85,0,7,.85,9.44,2.55s4.05,4.47,4.82,8.32c1.36-3.31,3.57-5.95,6.62-7.92,3.06-1.97,6.48-2.95,10.27-2.95,4.95,0,8.64,1.4,11.06,4.2,2.42,2.8,3.64,7,3.67,12.61v29.96h-2.29v-29.77c0-5.03-1.01-8.76-3.03-11.17-2.02-2.42-5.2-3.6-9.53-3.54-5.57.08-9.99,2.3-13.24,6.66-1.87,2.52-2.89,4.95-3.06,7.29v30.53Z"/><path d="m305.05,74.36c-.57-1.95-.85-4.75-.85-8.4-1.81,2.94-4.29,5.22-7.43,6.83s-6.69,2.42-10.65,2.42c-4.24,0-7.66-1.15-10.25-3.46-2.59-2.31-3.88-5.31-3.88-9.02,0-4.22,1.9-7.59,5.71-10.12,3.8-2.53,8.86-3.83,15.17-3.88h11.33v-6.71c0-3.85-1.21-6.83-3.63-8.96s-5.88-3.18-10.38-3.18c-4.19,0-7.68,1.08-10.48,3.23s-4.2,4.81-4.2,7.98l-2.29-.08c0-3.73,1.64-6.9,4.92-9.51,3.28-2.6,7.3-3.9,12.05-3.9s8.88,1.24,11.8,3.71c2.91,2.48,4.41,5.96,4.5,10.46v21.94c0,5.04.4,8.46,1.19,10.27v.38h-2.63Zm-18.93-1.44c4.3,0,8-.96,11.1-2.89,3.1-1.92,5.43-4.63,6.98-8.11v-10.91h-10.61c-6.56,0-11.59,1.3-15.07,3.9-2.83,2.12-4.24,4.77-4.24,7.94,0,2.8,1.12,5.18,3.35,7.13,2.24,1.95,5.07,2.93,8.49,2.93Z"/><path d="m323.56,39.13c1.5-3.57,3.71-6.38,6.62-8.45,2.91-2.07,6.14-3.1,9.68-3.1,4.92,0,8.58,1.39,10.97,4.18,2.39,2.79,3.6,7,3.63,12.63v29.96h-2.29v-30.02c-.03-4.92-1.03-8.56-3.01-10.92s-5.12-3.54-9.42-3.54c-3.96,0-7.39,1.41-10.29,4.22s-4.86,6.44-5.88,10.88v29.39h-2.29V28.44h2.29v10.7Z"/><path d="m398.51,74.36c-.57-1.95-.85-4.75-.85-8.4-1.81,2.94-4.29,5.22-7.43,6.83s-6.69,2.42-10.65,2.42c-4.25,0-7.66-1.15-10.25-3.46-2.59-2.31-3.88-5.31-3.88-9.02,0-4.22,1.9-7.59,5.71-10.12,3.8-2.53,8.86-3.83,15.17-3.88h11.33v-6.71c0-3.85-1.21-6.83-3.63-8.96s-5.88-3.18-10.38-3.18c-4.19,0-7.68,1.08-10.48,3.23s-4.2,4.81-4.2,7.98l-2.29-.08c0-3.73,1.64-6.9,4.92-9.51,3.28-2.6,7.3-3.9,12.05-3.9s8.88,1.24,11.8,3.71c2.91,2.48,4.41,5.96,4.5,10.46v21.94c0,5.04.39,8.46,1.19,10.27v.38h-2.63Zm-18.93-1.44c4.3,0,8-.96,11.1-2.89,3.1-1.92,5.43-4.63,6.98-8.11v-10.91h-10.61c-6.56,0-11.59,1.3-15.07,3.9-2.83,2.12-4.24,4.77-4.24,7.94,0,2.8,1.12,5.18,3.35,7.13,2.24,1.95,5.07,2.93,8.49,2.93Z"/><path d="m412.56,50.93c0-7.33,1.54-13.05,4.63-17.17s7.31-6.18,12.69-6.18c3.42,0,6.46.79,9.12,2.36,2.66,1.57,4.8,3.87,6.41,6.9v-8.4h2.33v45.12c0,6.05-1.56,10.79-4.67,14.2-3.11,3.41-7.34,5.12-12.69,5.12-3.08,0-5.91-.67-8.47-2-2.56-1.33-4.75-3.25-6.56-5.74l1.61-1.53c1.78,2.26,3.74,3.99,5.86,5.19,2.12,1.2,4.61,1.8,7.47,1.8,4.73,0,8.4-1.43,11.04-4.3,2.63-2.87,3.99-6.91,4.07-12.14v-7.03c-1.58,2.6-3.73,4.61-6.43,6.01-2.7,1.4-5.77,2.1-9.19,2.1-5.32,0-9.52-2.11-12.61-6.32-3.08-4.22-4.63-10-4.63-17.36v-.59Zm2.33.89c0,6.56,1.3,11.72,3.91,15.47,2.6,3.75,6.25,5.62,10.95,5.62,3.88,0,7.17-.9,9.89-2.7,2.72-1.8,4.64-4.32,5.77-7.58v-20.84c-2.49-7.95-7.68-11.93-15.58-11.93-4.73,0-8.4,1.85-11.01,5.56-2.62,3.71-3.93,9.17-3.93,16.38Z"/><path d="m478.9,75.21c-3.71,0-7.11-1-10.21-2.99s-5.53-4.73-7.28-8.21c-1.75-3.48-2.63-7.34-2.63-11.59v-1.91c0-4.24.85-8.13,2.55-11.67,1.7-3.54,4.03-6.3,7-8.28,2.97-1.98,6.21-2.97,9.72-2.97,5.12,0,9.31,1.83,12.56,5.48,3.25,3.65,4.88,8.45,4.88,14.39v2.42h-34.42v2.5c0,3.73.79,7.18,2.36,10.36,1.57,3.18,3.74,5.67,6.49,7.48,2.76,1.81,5.75,2.71,8.98,2.71s5.71-.51,7.87-1.54c2.17-1.03,4.08-2.61,5.75-4.74l1.61,1.15c-3.42,4.95-8.5,7.43-15.24,7.43Zm-.85-45.33c-4.47,0-8.26,1.66-11.38,4.99-3.11,3.33-4.94,7.56-5.47,12.71h32v-.55c0-3.11-.66-6.01-1.97-8.68-1.32-2.67-3.13-4.75-5.43-6.24s-4.89-2.23-7.75-2.23Z"/></g></svg>